<?xml version="1.0" encoding="utf-8"?>
<!-- Generator: Adobe Illustrator 27.5.0, SVG Export Plug-In . SVG Version: 6.00 Build 0)  -->
<svg version="1.1" id="Background" xmlns="http://www.w3.org/2000/svg" xmlns:xlink="http://www.w3.org/1999/xlink" x="0px" y="0px"
	 viewBox="0 0 1200 800" style="enable-background:new 0 0 1200 800;" xml:space="preserve">
<g>
	<path style="fill:#F2F7EC;" d="M1200.24,0.602c0,122.949,0,245.898,0,368.847c-1.282,0.443-2.119-0.472-3.025-1.052
		c-19.186-12.284-40.053-20.172-62.502-23.953c-10.461-1.762-21.028-2.153-31.558-1.538c-18.097,1.057-35.554,5.214-52.294,12.247
		c-0.516,0.217-1.03,0.44-1.567,0.6c-1.053,0.315-2.063,0.364-2.876-0.543c-0.879-0.982-0.439-1.959,0.116-2.865
		c2.646-4.32,4.616-8.926,6.132-13.76c7.712-24.59-3.795-50.394-26.341-61.898c-15.172-7.742-30.773-7.568-46.278-0.524
		c-4.971,2.258-9.607,5.067-13.91,8.443c-2.665,2.091-2.865,2.019-5.566-0.086c-8.536-6.651-17.974-11.213-28.775-12.903
		c-21.206-3.317-42.223,7.374-52.745,25.31c-4.595,7.833-6.785,16.322-7.32,25.312c-0.153,2.575,0.509,5.082,0.548,7.643
		c0.038,2.531-0.34,2.942-2.949,2.455c-5.039-0.941-10.098-1.45-15.237-1.611c-10.599-0.333-20.882,1.09-30.876,4.623
		c-0.528,0.187-1.049,0.395-1.582,0.562c-2.263,0.71-2.971,0.274-3.081-2.079c-0.142-3.038-0.475-6.054-0.942-9.051
		c-2.893-18.563-10.839-34.595-23.858-48.195c-9.873-10.314-21.464-17.882-34.904-22.582c-8.032-2.809-16.298-4.43-24.863-4.783
		c-25.799-1.062-47.824,8.31-67.652,23.968c-2.762,2.181-3.264,2.24-5.977,0.055c-9.856-7.935-20.596-14.333-32.534-18.611
		c-9.473-3.394-19.205-5.219-29.328-5.436c-14.817-0.318-28.781,2.81-41.872,9.579c-16.885,8.731-29.805,21.543-38.627,38.453
		c-6.992,13.401-10.248,27.648-10.017,42.716c0.049,3.192,0.464,6.367,0.808,9.542c0.305,2.809-0.537,3.494-3.044,2.454
		c-19.379-8.037-37.228-4.409-54.054,7.053c-1.057,0.72-2.057,1.521-3.074,2.298c-2.409,1.842-3.055,1.844-5.455-0.024
		c-7.284-5.669-15.278-9.981-24.299-12.086c-16.846-3.931-31.984-0.196-45.489,10.515c-4.829,3.829-8.673,8.481-11.776,13.764
		c-2.115,3.601-2.673,3.649-4.811,0.129c-9.216-15.172-21.823-26.678-37.801-34.348c-10.62-5.098-21.841-7.961-33.714-8.516
		c-14.435-0.675-28.112,2.101-41.316,7.719c-1.085,0.461-2.37,1.418-3.375,0.709c-1.227-0.867-0.335-2.384-0.138-3.587
		c5.677-34.565-2.393-65.663-24.509-92.71c-19.411-23.739-44.735-37.599-75.244-41.368c-18.895-2.334-37.321,0.253-55.135,7.024
		c-14.785,5.62-28.188,13.615-40.47,23.537c-3.63,2.933-3.653,2.945-7.233,0.067c-11.092-8.914-23.004-16.466-36.224-21.852
		c-0.602-0.245-1.139-0.565-1.602-1.016c0-69.548,0-139.097,0-208.645C0.936,0.145,1.912,0.38,2.854,0.38
		c74.412-0.014,148.824-0.01,223.231-0.013c0.407-0.013,0.812,0.018,1.188,0.19c0.546,0.195,0.915,0.615,1.26,1.056
		c5.99,7.65,14.121,12.792,21.738,18.536c1.095,0.826,2.108,0.816,3.263-0.015c6.472-4.658,12.86-9.414,18.652-14.923
		c1.46-1.389,2.561-3.04,3.773-4.614c0.166-0.154,0.327-0.311,0.485-0.473c0.16,0,0.32,0,0.48,0
		c1.072,0.497,2.207,0.231,3.307,0.231c305.566,0.014,611.132,0.014,916.698,0.027C1198.031,0.381,1199.165,0.125,1200.24,0.602z"/>
	<path style="fill:#B9D796;" d="M1200.24,678.82c0,40.443,0,80.887,0,121.34c-400.072,0-800.144,0-1200.216,0
		c0-40.294,0-80.577,0-120.86c7.403-8.91,17.005-13.815,28.351-15.525c3.972-0.599,7.953-0.81,11.937-0.081
		c1.322,0.242,1.774-0.228,1.388-1.568c-2.317-8.046-3.184-16.332-3.322-24.633c-0.113-6.772,0.623-13.55,2.012-20.225
		c3.581-17.2,11.074-32.515,22.667-45.673c17.316-19.654,39.034-31.219,65.17-34.024c18.128-1.945,35.498,1.157,52.175,8.507
		c10.84,4.777,20.785,10.952,29.904,18.463c1.643,1.353,2.746,0.964,4.158-0.19c8.271-6.762,17.247-12.416,26.911-16.987
		c11.014-5.21,22.526-8.611,34.68-9.8c26.944-2.635,51.059,4.596,72.196,21.286c17.066,13.476,28.457,30.91,34.4,51.893
		c3.021,10.667,3.863,21.524,3.364,32.521c-0.159,3.505-0.686,6.995-1.267,10.465c-0.102,0.608-0.469,1.361,0.051,1.821
		c0.578,0.51,1.189-0.135,1.749-0.362c7.07-2.865,14.311-5.049,21.923-5.962c18.225-2.189,35.12,1.536,50.675,11.261
		c10.276,6.424,18.579,14.824,24.946,25.138c1.153,1.868,1.418,1.869,2.549,0.069c8.297-13.197,20.264-20.7,35.701-22.239
		c10.599-1.057,20.437,1.902,29.534,7.344c2.058,1.231,4.112,2.492,5.937,4.056c1.44,1.234,2.603,1.284,4.193,0.045
		c6.449-5.026,13.639-8.62,21.642-10.459c9.323-2.142,18.422-1.332,27.287,2.233c0.445,0.179,0.871,0.406,1.339,0.522
		c0.072,0.018,0.155-0.01,0.514-0.04c-0.282-3.687-0.739-7.376-0.652-11.098c0.694-29.822,14.145-52.192,39.599-67.41
		c10.184-6.088,21.351-9.15,33.242-9.885c16.594-1.025,31.799,3.285,46.13,11.283c4.896,2.732,9.532,5.876,13.822,9.494
		c1.373,1.159,2.474,1.017,3.811-0.036c4.843-3.812,9.865-7.363,15.308-10.297c10.908-5.879,22.423-9.567,34.872-10.422
		c19.297-1.326,36.614,4.007,51.836,15.634c16.002,12.223,26.001,28.394,29.669,48.311c0.492,2.671,0.929,5.343,0.937,8.085
		c0.007,2.351,0.52,2.683,2.799,1.86c7.759-2.802,15.827-4.061,23.998-4.133c4.67-0.042,9.42,0.246,14.058,1.271
		c2.836,0.626,2.857,0.547,2.835-2.268c-0.043-5.515-0.058-10.988,1.425-16.412c5.237-19.149,23.902-33.455,43.687-33.627
		c11.883-0.103,22.206,3.921,31.649,10.776c2.989,2.17,3.032,2.149,5.944,0.053c7.646-5.503,15.911-9.527,25.407-10.54
		c13.706-1.463,25.853,2.266,36.17,11.397c8.666,7.67,13.646,17.418,15.145,28.883c1.355,10.362-1.077,19.992-5.919,29.12
		c-0.469,0.883-1.679,1.936-1.01,2.729c0.831,0.986,2.061-0.145,3.021-0.538c12.823-5.254,26.129-8.593,39.918-9.842
		c23.634-2.14,46.182,1.972,67.589,12.214c3.315,1.586,6.654,3.141,9.793,5.078C1198.77,677.388,1199.604,677.976,1200.24,678.82z"
		/>
	<path style="fill:#A2CC82;" d="M1200.24,678.82c-1.168-0.138-1.995-0.978-2.948-1.517c-9.838-5.558-20.099-10.039-31.043-12.996
		c-4.62-1.248-9.274-2.325-13.972-3.052c-3.671-0.569-7.398-0.969-11.135-1.228c-3.906-0.271-7.804-0.477-11.705-0.356
		c-3.49,0.108-6.97,0.5-10.452,0.807c-5.883,0.519-11.639,1.619-17.383,2.93c-5.916,1.351-11.678,3.166-17.352,5.286
		c-1.867,0.697-3.693,1.504-5.541,2.25c-0.294,0.119-0.622,0.157-0.914,0.28c-0.626,0.265-1.062,0.032-1.456-0.451
		c-0.482-0.591-0.087-1,0.218-1.483c1.4-2.226,2.523-4.597,3.585-6.996c1.783-4.028,2.854-8.235,3.563-12.589
		c0.494-3.036,0.473-6.053,0.356-9.063c-0.188-4.808-1.478-9.412-3.213-13.891c-2.679-6.917-6.903-12.796-12.508-17.564
		c-5.904-5.022-12.633-8.507-20.354-10.076c-4.442-0.903-8.886-1.094-13.325-0.8c-5.345,0.353-10.493,1.796-15.389,4.034
		c-4.449,2.034-8.584,4.579-12.437,7.59c-0.313,0.245-0.711,0.386-1.004,0.649c-0.802,0.72-1.482,0.656-2.305-0.052
		c-3.34-2.873-7.077-5.177-10.983-7.169c-4.713-2.403-9.708-3.948-14.982-4.69c-13.135-1.848-24.902,1.439-35.138,9.674
		c-4.587,3.69-8.409,8.21-11.303,13.507c-2.761,5.051-4.614,10.356-5.25,15.995c-0.427,3.788-0.127,7.663-0.061,11.498
		c0.027,1.578-0.077,1.892-1.528,1.608c-2.185-0.428-4.375-0.794-6.573-1.146c-0.956-0.154-1.895-0.213-2.849-0.242
		c-1.749-0.053-3.518,0.185-5.228-0.42c-0.288-0.102-0.642-0.092-0.952-0.045c-4.012,0.603-8.093,0.419-12.103,1.125
		c-4.724,0.832-9.331,2.061-13.832,3.688c-1.073,0.388-1.62,0.219-1.867-0.944c-0.116-0.55-0.247-1.086-0.238-1.647
		c0.094-5.559-1.247-10.889-2.684-16.186c-2.042-7.525-5.341-14.522-9.63-21.004c-2.411-3.643-5.043-7.145-8.168-10.274
		c-4.35-4.355-8.767-8.613-13.973-11.942c-8.957-5.727-18.545-9.857-29.137-11.506c-2.757-0.429-5.479-0.891-8.286-0.928
		c-1.734-0.023-3.451-0.529-5.223-0.43c-9.831,0.55-19.43,2.163-28.641,5.812c-9.807,3.885-18.642,9.349-26.753,16.041
		c-1.054,0.87-1.733,0.928-2.928-0.203c-1.984-1.876-4.253-3.349-6.447-4.936c-5.323-3.85-11.031-6.991-17.051-9.625
		c-5.576-2.44-11.323-4.292-17.292-5.408c-3.275-0.612-6.56-1.336-9.928-1.188c-1.458,0.064-2.795-0.566-4.264-0.506
		c-10.826,0.44-21.333,2.198-31.321,6.683c-6.158,2.766-11.872,6.208-17.127,10.375c-3.869,3.068-7.38,6.536-10.612,10.321
		c-4.809,5.634-8.698,11.809-11.733,18.522c-2.7,5.971-4.552,12.205-5.694,18.686c-1.02,5.787-1.014,11.59-0.829,17.396
		c0.077,2.417,0.257,4.874,0.87,7.332c-1.127,0.069-1.8-0.582-2.586-0.892c-5.916-2.334-12.025-3.679-18.409-3.497
		c-6.118,0.174-11.987,1.556-17.609,3.947c-5.087,2.163-9.793,4.972-14.007,8.569c-0.876,0.747-1.52,0.634-2.47-0.11
		c-3.832-3.002-7.871-5.703-12.321-7.745c-4.743-2.177-9.687-3.555-14.866-4.259c-2.15-0.292-4.279-0.465-6.427-0.401
		c-5.791,0.172-11.327,1.431-16.679,3.703c-6.364,2.702-11.761,6.69-16.366,11.775c-2.194,2.422-4.039,5.124-5.64,7.982
		c-0.228,0.407-0.321,0.922-1.143,1.269c-3.456-5.388-6.999-10.799-11.58-15.452c-4.616-4.688-9.607-8.839-15.164-12.363
		c-5.57-3.533-11.507-6.196-17.792-8.139c-6.189-1.914-12.491-2.924-18.985-3.307c-6.582-0.388-12.982,0.367-19.388,1.543
		c-6.45,1.183-12.53,3.528-18.803,6.285c0.374-2.699,0.727-5.094,1.032-7.495c0.309-2.44,0.775-4.865,0.792-7.335
		c0.017-2.478-0.055-4.958,0.02-7.434c0.195-6.413-0.847-12.679-2.141-18.919c-1.976-9.526-5.47-18.503-10.181-26.974
		c-3.136-5.639-6.83-10.93-10.992-15.905c-3.192-3.815-6.715-7.297-10.348-10.638c-4.513-4.152-9.571-7.664-14.835-10.827
		c-6.523-3.919-13.434-7.024-20.671-9.376c-5.153-1.675-10.443-2.747-15.788-3.666c-6.985-1.201-14.015-1.13-21.002-0.784
		c-6.896,0.341-13.711,1.661-20.403,3.525c-8.511,2.369-16.547,5.864-24.285,10.045c-6.883,3.719-13.356,8.084-19.398,13.071
		c-0.428,0.354-0.927,0.621-1.367,0.962c-1.825,1.416-1.969,1.415-3.675-0.045c-5.832-4.992-12.185-9.223-18.823-13.066
		c-6.728-3.896-13.799-7.027-21.138-9.515c-5.88-1.993-11.96-3.21-18.107-4.2c-6.993-1.126-14.014-1.109-21.004-0.778
		c-6.175,0.292-12.284,1.492-18.297,3.117c-7.993,2.16-15.538,5.373-22.772,9.319c-5.254,2.866-10.109,6.339-14.772,10.114
		c-2.236,1.81-4.297,3.815-6.397,5.739c-2.029,1.858-3.935,3.954-5.728,6.086c-3.231,3.841-6.232,7.861-8.897,12.125
		c-3.645,5.833-6.746,11.923-9.123,18.392c-1.762,4.796-3.198,9.684-4.169,14.682c-0.908,4.671-1.811,9.369-1.715,14.175
		c0.024,1.195-0.001,2.373-0.347,3.556c-0.216,0.74-0.263,1.635-0.061,2.372c0.605,2.209,0.248,4.451,0.435,6.667
		c0.529,6.263,1.466,12.461,3.193,18.522c0.164,0.577,0.598,1.141,0.28,1.915c-3.205-0.366-6.412-0.962-9.672-0.734
		c-7.651,0.536-14.922,2.323-21.567,6.33c-3.44,2.074-6.584,4.475-9.32,7.421c-0.631,0.679-1.174,1.567-2.284,1.595
		c0-98.807,0-197.614,0-296.42c1.25-0.915,2.296-0.048,3.333,0.445c7.62,3.616,14.68,8.132,21.28,13.373
		c2.925,2.323,2.916,2.33,5.845,0c13.502-10.742,28.551-18.21,45.63-21.221c18.488-3.259,36.103-0.449,52.873,7.936
		c8.232,4.116,15.666,9.382,22.071,15.938c14.035,14.369,22.419,31.536,24.718,51.563c0.852,7.426,0.407,14.818-0.697,22.189
		c-0.111,0.74-0.673,1.679,0.118,2.218c0.618,0.421,1.368-0.202,2.016-0.469c9.142-3.78,18.658-5.782,28.543-5.317
		c16.259,0.764,30.479,6.645,42.451,17.746c4.817,4.466,9.084,9.407,12.459,15.323c1.147-1.138,1.722-2.366,2.496-3.439
		c6.911-9.578,16.158-15.264,27.924-16.75c10.79-1.363,20.357,1.835,29.184,7.821c4.191,2.843,4.226,2.849,8.297,0.026
		c7.144-4.955,15.065-7.772,23.717-8.203c5.142-0.256,10.181,0.784,15.03,2.596c2.087,0.78,2.277,0.683,2.007-1.501
		c-1.513-12.251,0.761-23.864,5.821-35.01c2.292-5.05,5.26-9.708,8.814-13.948c11.496-13.714,26.106-21.956,43.909-24.078
		c17.183-2.048,32.731,2.846,47.131,11.99c2.365,1.502,4.6,3.187,6.83,4.879c2.373,1.8,2.398,1.808,4.714-0.022
		c9.287-7.337,19.505-12.95,31.119-15.428c26.151-5.579,48.179,1.893,65.886,21.828c8.979,10.109,13.737,22.189,15.469,35.519
		c0.021,0.159,0.04,0.317,0.056,0.476c0.403,4.189,0.401,4.183,4.592,2.928c9.737-2.915,19.607-3.609,29.639-1.818
		c2.93,0.523,2.985,0.465,2.867-2.427c-0.614-15.034,5.172-27.07,17.598-35.44c13.287-8.95,27.293-8.847,41.419-1.733
		c2.577,1.298,5.058,2.791,7.284,4.613c1.558,1.275,2.679,1.053,4.2-0.086c6.366-4.767,13.374-8.101,21.359-9.168
		c12.283-1.64,23.104,1.785,32.048,10.136c13.837,12.921,16.656,31.87,7.786,48.749c-0.427,0.813-1.22,1.52-1.01,2.611
		c0.977,0.418,1.707-0.236,2.483-0.55c16.734-6.765,34.142-9.718,52.121-8.473c15.746,1.091,30.616,5.548,44.543,13.081
		c5.928,3.207,11.555,6.833,16.836,11.013c1.733,1.372,1.916,1.274,2.864-0.811c8.715-19.155,23.547-30.073,44.45-32.351
		c8.989-0.98,17.675,1.025,25.935,4.658c5.216,2.294,10.113,5.171,14.585,8.713c1.431,1.133,2.504,1.164,3.983-0.007
		c9.499-7.526,20.203-12.381,32.354-13.331c14.12-1.104,26.678,3.136,37.589,12.153c1.535,1.268,3.203,2.422,4.468,3.985
		c1.099,1.358,1.687,1.033,2.252-0.429c1.854-4.797,4.328-9.269,7.305-13.456c11.149-15.678,26.291-25.043,45.284-27.787
		c17.396-2.513,33.279,2.131,47.964,11.396c2.366,1.493,4.708,3.028,6.861,4.831c0.468,0.392,0.905,0.937,1.717,0.83
		c0.985-2.735,0.652-5.66,1.104-8.481c3.791-23.626,15.826-41.841,35.868-54.829c0.831-0.538,1.682-1.349,2.825-0.613
		C1200.24,491.119,1200.24,584.969,1200.24,678.82z"/>
	<path style="fill:#7ABC66;" d="M1200.24,397.268c-2.403,0.598-4.19,2.289-6.127,3.639c-4.523,3.152-8.726,6.729-12.406,10.848
		c-3.774,4.225-7.151,8.745-10.001,13.675c-2.45,4.237-4.502,8.64-6.053,13.255c-1.52,4.523-2.817,9.125-3.337,13.901
		c-0.368,3.372-0.748,6.742-1.149,10.352c-1.447-0.577-2.355-1.62-3.369-2.411c-9.665-7.543-20.475-12.625-32.45-15.193
		c-6.05-1.298-12.234-1.46-18.348-0.964c-7.34,0.595-14.402,2.571-21.125,5.696c-4.651,2.161-9.084,4.671-13.103,7.844
		c-6.509,5.138-11.935,11.249-16.215,18.378c-2.063,3.436-3.717,7.051-5.178,10.769c-0.569,1.449-0.875,1.46-1.866,0.328
		c-3.175-3.627-6.948-6.554-10.95-9.195c-4.715-3.113-9.91-5.193-15.357-6.528c-6.869-1.683-13.784-1.917-20.834-0.666
		c-8.258,1.466-15.72,4.654-22.677,9.174c-1.999,1.299-3.966,2.668-5.762,4.263c-0.813,0.722-1.503,0.88-2.604-0.008
		c-8.653-6.983-18.357-11.869-29.401-13.661c-9.759-1.583-19.178-0.129-28.287,3.737c-7.44,3.158-13.589,8.013-18.872,13.986
		c-4.103,4.639-7.103,9.998-9.295,15.797c-0.083,0.22-0.192,0.43-0.342,0.763c-2.009-0.568-3.265-2.207-4.818-3.353
		c-4.565-3.371-9.336-6.378-14.304-9.13c-10.288-5.701-21.278-9.404-32.758-11.649c-5.14-1.005-10.362-1.739-15.648-1.64
		c-2.558,0.048-5.119,0.037-7.678,0c-6.407-0.091-12.688,0.948-18.942,2.151c-7.064,1.358-13.912,3.484-20.621,6.065
		c-1.042,0.401-2.035,0.929-3.084,1.309c-0.514,0.186-1.164,0.247-1.569-0.243c-0.439-0.531-0.069-1.089,0.224-1.542
		c1.307-2.02,2.292-4.188,3.215-6.406c2.5-6.011,3.555-12.28,2.96-18.717c-0.673-7.283-3.249-13.946-7.685-19.818
		c-6.034-7.984-14.054-12.922-23.801-14.9c-7.953-1.614-15.689-0.488-23.145,2.694c-4.211,1.797-8.094,4.122-11.607,7.049
		c-0.975,0.812-1.779,0.786-2.751-0.015c-5.245-4.315-11.145-7.414-17.722-9.115c-8.965-2.32-17.68-1.578-26.102,2.378
		c-9.164,4.304-15.614,11.213-19.587,20.439c-1.806,4.194-2.976,8.59-2.86,13.218c0.056,2.225-0.308,4.471,0.316,6.675
		c0.193,0.681-0.156,1.065-0.86,1.102c-0.642,0.034-1.259-0.106-1.892-0.215c-3.685-0.635-7.384-1.157-11.137-1.21
		c-7.488-0.107-14.753,1.135-21.822,3.559c-3.008,1.031-2.968,1.122-3.011-2.112c-0.06-4.57-1.084-8.984-2.298-13.366
		c-2.266-8.176-6.051-15.595-11.237-22.279c-5.085-6.555-11.221-11.96-18.333-16.263c-6.908-4.179-14.359-6.968-22.274-8.362
		c-4.138-0.729-8.36-1.351-12.589-1.089c-8.794,0.545-17.344,2.182-25.503,5.717c-7.382,3.199-14.15,7.322-20.326,12.454
		c-1.5,1.246-1.888,1.158-3.472-0.108c-7.022-5.61-14.646-10.153-23.066-13.404c-5.474-2.113-11.115-3.483-16.891-4.12
		c-3.84-0.423-7.703-0.609-11.657-0.267c-6.595,0.57-12.915,1.981-19.045,4.29c-6.08,2.29-11.742,5.415-16.785,9.556
		c-6.08,4.993-11.447,10.621-15.585,17.376c-4.555,7.435-7.571,15.396-8.945,24.023c-0.694,4.352-1.064,8.7-0.86,13.085
		c0.113,2.431,0.504,4.85,0.783,7.391c-1.02,0.056-1.79-0.341-2.579-0.661c-3.343-1.358-6.806-2.116-10.405-2.521
		c-11.357-1.278-21.145,2.5-30.145,9.003c-0.129,0.093-0.235,0.219-0.365,0.31c-0.78,0.542-1.507,1.371-2.362,1.538
		c-0.993,0.193-1.475-1.059-2.262-1.578c-3.799-2.503-7.519-5.121-11.86-6.677c-3.459-1.24-6.974-2.071-10.623-2.643
		c-4.873-0.764-9.563-0.118-14.164,1.117c-5.59,1.5-10.649,4.131-15.112,7.967c-3.927,3.375-6.914,7.427-9.659,11.961
		c-8.953-15.069-21.477-25.603-38.076-30.897c-16.625-5.302-32.859-3.467-48.645,3.73c-0.541-1.28,0.01-2.301,0.201-3.224
		c0.843-4.073,0.729-8.232,1.278-12.328c0.239-1.784,0.131-3.631-0.225-5.475c-0.466-2.412-0.208-4.904-0.592-7.37
		c-0.874-5.601-2.101-11.086-3.971-16.443c-1.533-4.389-3.512-8.564-5.659-12.669c-2.335-4.465-5.155-8.607-8.36-12.498
		c-2.434-2.956-4.806-5.974-7.658-8.541c-5.641-5.077-11.608-9.696-18.37-13.256c-6.885-3.625-14.031-6.482-21.637-8.159
		c-4.2-0.926-8.418-1.694-12.742-1.766c-1.826-0.031-3.611-0.526-5.468-0.455c-8.302,0.319-16.473,1.384-24.478,3.709
		c-10.849,3.15-20.73,8.262-30.001,14.607c-2.624,1.796-5.075,3.853-7.535,5.876c-0.898,0.738-1.518,0.857-2.474,0.076
		c-3.828-3.128-7.793-6.071-11.972-8.73c-4.05-2.577-8.255-4.856-12.577-6.934c-0.589-0.283-1.178-0.49-1.838-0.442
		c0-57.877,0-115.754,0-173.631c1.197-0.189,2.161,0.474,3.172,0.906c13.108,5.6,25.013,13.157,36.014,22.177
		c0.247,0.203,0.473,0.434,0.73,0.622c1.904,1.388,1.479,1.208,2.947-0.006c10.646-8.808,22.157-16.252,34.777-21.934
		c10.621-4.782,21.69-8.08,33.205-9.83c8.09-1.23,16.257-1.503,24.395-0.931c17.143,1.204,33.232,6.075,48.244,14.495
		c10.978,6.157,20.712,13.873,29.154,23.176c14.163,15.608,23.477,33.719,27.859,54.368c2.071,9.759,2.713,19.608,2.226,29.535
		c-0.262,5.339-0.983,10.644-2.045,15.893c-0.078,0.385-0.275,0.758,0.081,1.331c21.455-9.731,43.576-12.317,66.357-5.164
		c22.769,7.15,39.841,21.457,51.951,42.121c0.773-0.696,1.119-1.561,1.58-2.336c8.354-14.055,20.539-22.716,36.601-25.824
		c11.207-2.169,21.928-0.357,32.237,4.302c5.269,2.381,10.168,5.375,14.639,9.057c1.714,1.412,1.733,1.379,3.413,0.033
		c8.765-7.023,18.536-11.895,29.709-13.654c9.875-1.554,19.414-0.261,28.61,3.642c0.712,0.302,1.352,0.873,2.36,0.699
		c0.173-2.471-0.45-4.897-0.638-7.34c-0.362-4.717-0.33-9.395,0.035-14.11c0.597-7.699,2.241-15.149,4.843-22.395
		c5.44-15.149,14.312-27.935,26.577-38.371c11.425-9.721,24.475-16.164,39.121-19.37c9.29-2.034,18.671-2.343,28.118-1.395
		c11.426,1.147,22.193,4.535,32.452,9.575c7.919,3.89,15.269,8.695,22.115,14.271c3.031,2.469,2.305,2.069,4.851,0.02
		c12.933-10.407,27.244-18.084,43.476-22.021c9.502-2.305,19.16-3.008,28.808-2.048c23.803,2.368,43.657,12.761,59.411,30.721
		c11,12.54,17.806,27.192,20.684,43.62c0.632,3.61,1.08,7.266,1.12,10.95c0.006,0.55-0.076,1.12,0.408,1.888
		c16.859-6.657,34.285-7.559,52.145-3.82c-0.125-1.767-0.185-3.261-0.344-4.744c-0.905-8.46,0.519-16.589,3.866-24.327
		c7.019-16.227,19.198-26.682,36.277-31.158c11.595-3.039,22.966-1.687,33.984,2.923c5.569,2.33,10.675,5.43,15.406,9.161
		c2.462,1.942,2.455,1.957,5.028-0.062c5.835-4.578,12.236-8.13,19.239-10.58c6.014-2.103,12.249-3.306,18.582-3.01
		c19.268,0.899,34.195,9.517,44.388,25.959c5.54,8.937,7.962,18.795,7.487,29.271c-0.408,8.999-3.051,17.415-7.45,25.276
		c-0.468,0.837-0.971,1.654-1.457,2.48c-0.278,0.472-0.7,0.918-0.173,1.493c0.516,0.563,1.047,0.951,1.88,0.606
		c1.993-0.824,4.002-1.608,6.005-2.407c11.176-4.459,22.756-7.448,34.622-9.318c10.457-1.648,21.009-2.051,31.557-1.438
		c18.113,1.052,35.441,5.535,52.145,12.546c9.608,4.033,18.705,9.006,27.431,14.678
		C1200.24,378.722,1200.24,387.995,1200.24,397.268z"/>
	<path style="fill:#FCFDF8;" d="M1200.24,0.602c-306.89,0-613.779,0.001-920.669-0.025c-0.874,0-1.908,0.493-2.648-0.454
		c307.052,0,614.105,0,921.157,0.03C1198.783,0.152,1199.708-0.401,1200.24,0.602z"/>
	<path style="fill:#FCFDF8;" d="M227.01,0.6C151.348,0.601,75.686,0.601,0.024,0.602c0.105-0.148-0.243-0.5,0.24-0.485
		c0.639,0.021,1.28,0.005,1.919,0.005c74.944,0,149.887,0,224.83,0c0.121,0.107,0.16,0.214,0.119,0.32
		C227.092,0.547,227.051,0.6,227.01,0.6z"/>
	<path style="fill:#D4E7CC;" d="M227.01,0.6c0.014-0.159,0.016-0.318,0.005-0.478c16.476,0,32.953,0,49.429,0
		c-0.022,0.187-0.044,0.375-0.066,0.562c-1.066,0.65-2.245,0.75-3.459,0.75c-14.205,0.004-28.41-0.009-42.616,0.011
		c-0.97,0.001-1.901-0.172-2.839-0.357C227.312,0.926,227.161,0.763,227.01,0.6z"/>
	<path style="fill:#7ABC66;" d="M1078.875,99.262c-0.068,11.981-3.941,22.626-10.487,32.414c-4.031,6.028-9.001,11.176-14.53,15.841
		c-8.916,7.522-17.848,15.023-26.984,22.279c-12.017,9.544-24.272,18.767-36.985,27.372c-1.885,1.276-1.892,1.268-3.747,0.01
		c-15.089-10.235-29.554-21.302-43.697-32.797c-8.186-6.653-16.396-13.285-24.181-20.4c-9.531-8.71-16.376-19.216-19.463-31.849
		c-4.143-16.957-0.514-32.319,10.447-45.84c7.67-9.461,17.669-15.331,29.584-17.828c11.222-2.352,22.062-0.915,32.505,3.699
		c5.437,2.402,10.465,5.491,15.072,9.257c1.533,1.253,1.561,1.252,3.182-0.025c7.431-5.855,15.565-10.313,24.83-12.542
		c23.216-5.587,46.501,5.029,57.916,25.516C1076.662,82.133,1078.805,90.47,1078.875,99.262z"/>
	<path style="fill:#7ABC66;" d="M443.846,258.282c-0.233,9.404-2.666,17.481-7.083,25.004c-4.193,7.142-9.964,12.831-16.244,18.101
		c-11.016,9.244-22.119,18.378-33.619,27.02c-6.005,4.512-12.079,8.926-18.325,13.101c-1.628,1.088-1.463,1.251-3.323,0.001
		c-11.481-7.717-22.457-16.11-33.264-24.73c-7.62-6.078-15.123-12.3-22.461-18.714c-9.006-7.872-15.466-17.393-18.252-29.167
		c-4.527-19.136,4.347-38.228,20.591-47.889c8.408-5,17.519-6.894,27.156-5.86c9.355,1.003,17.649,4.82,25.113,10.495
		c0.933,0.709,1.756,2.026,2.893,1.876c0.966-0.127,1.813-1.209,2.699-1.885c7.525-5.742,15.921-9.55,25.359-10.507
		c11.335-1.15,21.746,1.638,30.887,8.563c9.609,7.28,15.378,16.935,17.335,28.826C443.656,254.636,443.714,256.804,443.846,258.282z
		"/>
	<path style="fill:#7ABC66;" d="M49.974,106.389C49.546,89.823,61.873,73.899,80.04,70.726c9.657-1.686,18.545,0.697,26.799,5.73
		c1.768,1.078,3.444,2.327,5.07,3.614c0.859,0.68,1.429,0.671,2.27-0.018c2.664-2.182,5.532-4.063,8.633-5.59
		c5.682-2.798,11.666-4.426,18.01-4.241c17.452,0.508,31.65,12.998,34.802,29.29c2.318,11.982-1.176,22.557-8.434,32.105
		c-2.881,3.79-6.43,6.882-10.024,9.934c-11.149,9.466-22.533,18.637-34.384,27.215c-2.653,1.921-5.407,3.704-8.041,5.65
		c-1.228,0.907-2.18,0.838-3.417-0.01c-7.454-5.104-14.701-10.484-21.823-16.036c-8.067-6.289-15.966-12.785-23.682-19.498
		c-8.211-7.143-13.756-15.894-15.668-26.747c-0.069-0.393-0.163-0.788-0.168-1.184C49.962,109.424,49.974,107.907,49.974,106.389z"
		/>
	<path style="fill:#7ABC66;" d="M543.72,117.056c8.446-0.005,16.626,3.42,24.026,9.011c0.318,0.241,0.628,0.497,0.917,0.771
		c0.766,0.725,1.393,0.697,2.256-0.019c2.962-2.458,6.2-4.52,9.725-6.083c13.282-5.89,26.126-5.176,37.802,3.647
		c11.194,8.459,16.053,20.011,14.182,34.06c-1.391,10.438-6.67,18.877-14.272,25.906c-5.983,5.533-12.357,10.622-18.701,15.736
		c-9.083,7.321-18.348,14.402-28.024,20.931c-1.854,1.251-1.866,1.258-3.715-0.001c-11.301-7.697-22.117-16.036-32.645-24.75
		c-4.677-3.87-9.458-7.636-13.901-11.763c-8.209-7.626-13.592-16.784-14.685-28.219c-1.703-17.815,10.979-35.374,29.859-38.712
		C538.609,117.208,540.668,117.134,543.72,117.056z"/>
	<path style="fill:#7ABC66;" d="M677.612,191.069c-0.015-12.482,9.045-24.503,22.954-26.808c8.6-1.425,16.248,1.213,23.104,6.386
		c1.606,1.211,1.602,1.252,3.166,0.064c3.932-2.986,8.229-5.149,13.1-6.188c15.004-3.2,28.898,6.518,32.236,20.298
		c2.164,8.932-0.233,16.879-5.333,24.221c-2.819,4.059-6.628,7.133-10.358,10.263c-8.938,7.499-18.049,14.78-27.626,21.461
		c-3.495,2.438-3.476,2.489-7.057,0.017c-9.61-6.635-18.733-13.9-27.637-21.443c-3.349-2.837-6.842-5.513-9.529-9.063
		C680.318,204.579,677.644,198.312,677.612,191.069z"/>
	<path style="fill:#7ABC66;" d="M454.193,24.03c6.559-0.032,11.975,2.111,16.969,5.519c0.396,0.27,0.774,0.565,1.161,0.848
		c1.605,1.175,1.606,1.176,3.147,0.051c3.981-2.905,8.254-5.146,13.179-5.997c7.663-1.324,14.682,0.241,20.772,5.039
		c7.034,5.542,10.578,12.933,10.228,21.927c-0.261,6.695-3.058,12.47-7.197,17.666c-2.567,3.223-5.813,5.701-8.918,8.322
		c-8.734,7.37-17.681,14.473-27.106,20.954c-0.066,0.045-0.128,0.096-0.196,0.139c-2.794,1.781-1.85,1.856-4.504,0.047
		c-6.802-4.638-13.353-9.621-19.725-14.831c-4.453-3.64-8.952-7.241-13.196-11.115c-6.314-5.764-10.34-12.894-10.593-21.563
		C427.754,35.234,440.893,23.676,454.193,24.03z"/>
	<path style="fill:#7ABC66;" d="M1090.84,157.625c-0.017-11.42,8.44-21.167,19.488-22.802c7.011-1.037,13.068,1.089,18.673,5.048
		c1.784,1.26,1.788,1.295,3.573,0.001c4.652-3.374,9.791-5.477,15.584-5.348c12.118,0.27,21.436,9.728,22.407,20.613
		c0.618,6.921-1.62,12.839-5.71,18.256c-2.686,3.558-6.255,6.158-9.606,8.978c-7.214,6.07-14.635,11.884-22.412,17.226
		c-2.515,1.728-1.922,1.503-4.106-0.003c-9.615-6.627-18.682-13.959-27.543-21.548c-4.534-3.883-7.83-8.608-9.474-14.4
		C1091.147,161.643,1090.758,159.608,1090.84,157.625z"/>
	<path style="fill:#7ABC66;" d="M225.454,170.407c-0.189-9.384,7.963-18.226,18.883-18.134c4.262,0.036,8.124,1.566,11.577,4.052
		c2.089,1.504,1.816,1.346,3.675,0.028c3.608-2.556,7.594-4.149,12.048-4.087c9.912,0.139,16.957,7.424,18.281,15.588
		c0.957,5.903-0.87,10.995-4.294,15.689c-2.248,3.081-5.335,5.256-8.183,7.686c-5.654,4.823-11.551,9.336-17.64,13.596
		c-2.001,1.4-2.01,1.357-3.933,0.038c-8.115-5.563-15.813-11.672-23.108-18.254C228.152,182.452,225.419,177.201,225.454,170.407z"
		/>
	<path style="fill:#7ABC66;" d="M777.362,230.867c0.175-6.178,3.215-11.33,9.098-14.663c6.135-3.475,12.253-2.75,18.264,0.526
		c1.175,0.641,2.063,2.178,3.403,1.967c1.152-0.181,2.13-1.325,3.24-1.947c6.807-3.816,13.554-3.969,20.058,0.636
		c6.851,4.852,9.522,14.393,5.012,22.884c-1.603,3.018-3.809,5.511-6.395,7.692c-6.414,5.408-12.923,10.695-19.807,15.503
		c-0.328,0.229-0.705,0.402-0.988,0.675c-0.872,0.84-1.643,0.593-2.539-0.025c-4.671-3.224-9.19-6.649-13.593-10.227
		c-2.665-2.166-5.344-4.321-7.912-6.6C780.478,243.095,777.405,238.038,777.362,230.867z"/>
	<path style="fill:#7ABC66;" d="M227.464,1.089c0.373-0.566,0.964-0.483,1.51-0.482c15.722,0.014,31.444,0.033,47.165,0.052
		c0.079,0,0.159,0.017,0.238,0.026c-0.954,2.162-2.458,3.916-4.188,5.47c-6.003,5.392-12.366,10.33-18.945,15.001
		c-1.038,0.737-1.804,0.6-2.785-0.081c-4.79-3.324-9.413-6.864-13.866-10.623c-2.554-2.156-5.354-4.054-7.349-6.814
		C228.638,2.798,228.057,1.939,227.464,1.089z"/>
	<path style="fill:#7ABC66;" d="M446.365,191.53c1.228,0.032,2.403,0.369,3.387,1.052c0.87,0.604,1.469,0.494,2.342-0.018
		c2.494-1.463,5.025-1.48,7.391,0.336c2.966,2.277,3.403,6.404,0.863,9.333c-2.475,2.853-5.576,5.004-8.642,7.177
		c-0.634,0.449-1.161,0.319-1.739-0.1c-2.846-2.063-5.731-4.093-8.143-6.667c-1.977-2.11-2.411-4.66-1.379-7.344
		C441.32,193.019,443.868,191.492,446.365,191.53z"/>
	<path style="fill:#7ABC66;" d="M1172.638,230.992c-0.149,1.997-0.802,3.628-2.205,4.814c-2.012,1.699-4.134,3.267-6.179,4.928
		c-0.793,0.644-1.446,0.734-2.334,0.088c-2.199-1.601-4.397-3.22-6.338-5.108c-2.461-2.395-2.943-5.39-0.989-7.969
		c1.581-2.087,4.005-2.862,6.393-1.713c1.533,0.738,2.658,0.582,4.161-0.067C1168.71,224.425,1172.703,227.302,1172.638,230.992z"/>
	<path style="fill:#7ABC66;" d="M414.46,84.658c-0.132,2.385-0.883,4.059-2.331,5.3c-1.938,1.66-4,3.177-5.99,4.778
		c-0.842,0.678-1.575,0.817-2.543,0.105c-2.126-1.563-4.236-3.152-6.165-4.941c-3.023-2.802-2.956-6.94,0.025-9.136
		c1.776-1.309,3.745-1.518,5.643-0.525c1.282,0.67,2.223,0.555,3.492-0.03C410.268,78.513,414.489,81.221,414.46,84.658z"/>
	<path style="fill:#7ABC66;" d="M67.572,38.873c0.888-0.017,1.773,0.051,2.539,0.536c0.965,0.611,1.803,0.58,2.878,0.066
		c2.815-1.346,5.567-0.624,7.239,1.686c1.505,2.079,1.307,5.147-0.712,7.246c-2.1,2.183-4.556,3.974-7.018,5.742
		c-0.619,0.444-1.136,0.447-1.731,0.033c-2.422-1.687-4.736-3.518-6.898-5.522c-1.003-0.93-1.603-2.188-1.835-3.559
		C61.504,41.966,64.071,38.581,67.572,38.873z"/>
	<path style="fill:#7ABC66;" d="M771.121,108.141c0.039-4.338,4.122-6.851,7.996-4.951c1.147,0.562,1.895,0.571,3.021-0.011
		c2.495-1.289,5.332-0.606,6.911,1.406c1.679,2.141,1.648,5.095-0.242,7.274c-2.11,2.431-4.788,4.221-7.346,6.136
		c-0.608,0.456-1.133,0.33-1.729-0.102c-2.331-1.69-4.645-3.402-6.708-5.415C771.776,111.261,771.074,109.761,771.121,108.141z"/>
	<path style="fill:#7ABC66;" d="M857.592,220.211c1.296-0.175,2.393,1.062,3.637,1.151c1.236,0.089,2.368-1.071,3.802-1.195
		c3.945-0.342,7.223,3.895,5.284,7.876c-0.425,0.872-0.931,1.711-1.665,2.32c-2.026,1.68-4.118,3.281-6.174,4.925
		c-0.768,0.614-1.474,0.782-2.344,0.098c-2.196-1.725-4.468-3.356-6.487-5.297c-1.855-1.783-2.357-3.958-1.605-6.361
		C852.763,221.415,854.817,220.146,857.592,220.211z"/>
	<path style="fill:#84C06C;" d="M646.139,187.393c1.21-0.338,2.256-0.235,2.521,1.244c0.145,0.807-1.562,2.569-2.434,2.646
		c-0.873,0.077-2.743-1.783-2.609-2.698C643.847,186.999,644.97,187.109,646.139,187.393z"/>
	<path style="fill:#7FBE69;" d="M807.446,74.166c1.816,0.008,2.488,0.366,2.47,1.317c-0.014,0.701-1.847,2.564-2.534,2.576
		c-0.787,0.014-2.502-1.699-2.545-2.541C804.783,74.464,805.376,74.157,807.446,74.166z"/>
	<path style="fill:#84C06B;" d="M308.581,82.827c1.759-0.018,2.447,0.392,2.377,1.417c-0.057,0.832-1.825,2.553-2.584,2.516
		c-0.838-0.041-2.495-1.772-2.5-2.611C305.868,83.17,306.528,82.848,308.581,82.827z"/>
	<path style="fill:#80BF6A;" d="M420.739,186.254c1.106-0.086,2.223-0.232,2.426,1.234c0.116,0.839-1.561,2.558-2.451,2.614
		c-0.852,0.053-2.56-1.545-2.622-2.454C418.02,186.586,418.678,186.247,420.739,186.254z"/>
	<path style="fill:#80BE69;" d="M958.794,215.673c1.967-0.025,2.458,0.232,2.463,1.291c0.004,0.829-1.649,2.633-2.426,2.647
		c-0.772,0.015-2.442-1.761-2.458-2.614C956.353,215.956,956.823,215.699,958.794,215.673z"/>
	<path style="fill:#7FBE68;" d="M1099.553,83.096c-0.01,1.018-1.569,2.531-2.529,2.455c-0.883-0.07-2.319-1.535-2.356-2.406
		c-0.047-1.103,0.604-1.455,2.656-1.433C1099.019,81.73,1099.563,82.068,1099.553,83.096z"/>
	<path style="fill:#80BF6A;" d="M9.964,153.619c1.911,0.002,2.517,0.331,2.471,1.342c-0.039,0.858-1.734,2.524-2.551,2.507
		c-0.811-0.016-2.522-1.787-2.487-2.574C7.439,153.948,8.105,153.617,9.964,153.619z"/>
	<path style="fill:#7FBE68;" d="M148.435,165.599c1.76,0.016,2.271,0.311,2.291,1.32c0.019,0.953-1.545,2.518-2.506,2.507
		c-0.956-0.011-2.421-1.628-2.374-2.62C145.895,165.785,146.334,165.58,148.435,165.599z"/>
</g>
</svg>
