<?xml version="1.0" standalone="no"?>
<!DOCTYPE svg PUBLIC "-//W3C//DTD SVG 20010904//EN"
 "http://www.w3.org/TR/2001/REC-SVG-20010904/DTD/svg10.dtd">
<svg version="1.0" xmlns="http://www.w3.org/2000/svg"
 width="1024.000000pt" height="1024.000000pt" viewBox="0 0 1024.000000 1024.000000"
 preserveAspectRatio="xMidYMid meet">

<g transform="translate(0.000000,1024.000000) scale(0.100000,-0.100000)"
fill="#000000" stroke="none">
<path d="M7596 8111 c-4 -6 -11 -9 -16 -6 -17 10 -60 -7 -60 -24 -1 -14 -2
-14 -14 2 -24 31 -25 4 -4 -58 17 -50 19 -75 14 -152 l-5 -92 30 -25 c58 -49
163 -35 195 26 23 45 16 82 -36 184 -27 54 -50 111 -50 126 0 15 -4 28 -10 28
-5 0 -10 -8 -10 -17 0 -15 -1 -15 -13 2 -10 13 -16 15 -21 6z"/>
<path d="M6737 7692 c-5 -24 6 -41 26 -42 4 0 7 13 7 29 0 38 -26 49 -33 13z"/>
<path d="M7682 7700 c0 -14 2 -19 5 -12 2 6 2 18 0 25 -3 6 -5 1 -5 -13z"/>
<path d="M7690 7636 c0 -102 33 -483 46 -528 4 -15 8 -15 25 -5 19 11 20 19
14 87 -7 79 -6 79 37 20 22 -31 26 -47 30 -137 2 -55 9 -107 15 -114 8 -10 8
-32 -1 -85 -12 -67 -12 -71 6 -66 10 2 19 9 19 16 1 6 3 29 5 50 5 58 10 66
43 66 16 0 31 6 35 15 3 8 12 15 20 15 9 0 20 17 27 43 16 61 49 136 81 184
31 47 33 54 16 71 -8 8 -18 6 -40 -9 l-28 -20 0 35 c0 42 -5 44 -37 14 l-23
-21 0 25 c0 39 -10 58 -31 58 -14 0 -19 -7 -19 -30 0 -37 -11 -38 -32 -2 -28
46 -79 114 -84 110 -2 -3 7 -38 21 -78 13 -41 22 -76 20 -78 -2 -2 -15 4 -29
13 -14 10 -33 15 -41 12 -18 -7 -24 15 -60 218 -15 83 -29 152 -31 154 -2 2
-4 -12 -4 -33z"/>
<path d="M4585 7529 c-17 -6 -17 -8 -2 -8 19 -1 23 -16 5 -27 -6 -4 -17 1 -24
11 -8 10 -17 16 -20 12 -4 -3 1 -13 9 -22 17 -16 37 -76 37 -107 0 -11 8 -18
20 -18 11 0 20 -4 20 -10 0 -5 -7 -10 -15 -10 -18 0 -20 -16 -3 -26 7 -4 8 -3
4 4 -11 17 9 15 24 -3 12 -15 4 -21 -23 -16 -5 1 -5 -9 -1 -21 11 -36 6 -85
-12 -112 l-16 -25 33 9 c45 13 69 38 69 72 0 15 -4 28 -8 28 -13 0 -32 69 -25
88 4 9 2 13 -4 9 -6 -4 -10 17 -9 61 1 60 -1 66 -15 52 -8 -8 -12 -17 -8 -20
8 -6 -1 -70 -10 -70 -4 0 -8 8 -9 18 -3 30 -7 47 -15 58 -9 15 18 38 34 29 8
-5 8 -2 1 11 -5 11 -11 24 -13 30 -3 7 -12 8 -24 3z m68 -259 c3 -12 0 -20 -7
-20 -6 0 -12 9 -12 20 0 11 3 20 7 20 4 0 9 -9 12 -20z m2 -40 c3 -5 1 -10 -4
-10 -6 0 -11 5 -11 10 0 6 2 10 4 10 3 0 8 -4 11 -10z"/>
<path d="M4490 7472 c0 -11 9 -27 20 -37 17 -16 20 -16 26 -2 7 20 -13 57 -31
57 -8 0 -15 -8 -15 -18z"/>
<path d="M6566 7463 c-3 -10 -8 -96 -12 -190 l-7 -173 26 0 c14 0 30 -8 36
-17 8 -15 11 -15 25 -3 26 21 41 -3 38 -60 -3 -62 -29 -132 -72 -195 -26 -38
-29 -47 -14 -41 45 19 104 19 124 1 11 -10 23 -15 26 -12 4 3 -4 71 -15 151
-18 116 -20 152 -11 185 12 45 7 58 -57 158 -30 48 -48 108 -63 211 -1 10 -20
-2 -24 -15z"/>
<path d="M4434 7439 c-19 -21 -18 -21 10 -45 28 -24 66 -29 73 -9 5 15 -35 75
-50 75 -8 0 -22 -9 -33 -21z"/>
<path d="M4652 7440 c0 -14 2 -19 5 -12 2 6 2 18 0 25 -3 6 -5 1 -5 -13z"/>
<path d="M6875 7358 c27 -32 51 -58 53 -58 7 0 -55 74 -79 95 -13 11 -1 -6 26
-37z"/>
<path d="M6766 7261 c-25 -78 -46 -147 -46 -151 0 -5 27 -8 59 -7 94 3 126
-42 81 -115 -11 -18 -20 -36 -20 -40 0 -5 20 -8 44 -8 47 0 96 -29 96 -58 0
-8 -10 -26 -22 -39 l-22 -24 22 -6 c20 -5 22 -10 17 -47 -8 -59 -43 -490 -51
-629 -4 -65 -10 -114 -14 -110 -4 4 -15 41 -25 81 -16 65 -16 89 -5 260 8 104
10 220 6 263 -7 69 -10 77 -36 92 -15 9 -30 17 -33 17 -3 0 -9 -20 -13 -45 -6
-46 -26 -57 -32 -19 -2 10 -8 29 -14 41 -11 22 -12 21 -44 -26 -48 -71 -107
-117 -222 -173 -57 -27 -106 -56 -108 -63 -3 -7 2 -40 10 -73 l16 -60 -56 -98
c-31 -55 -60 -102 -66 -105 -17 -10 10 -21 33 -14 19 6 20 4 13 -27 -8 -36 -8
-42 -6 -107 2 -39 4 -42 19 -30 9 8 25 28 36 44 17 28 18 28 13 5 -21 -82 -29
-129 -23 -143 9 -24 46 -21 75 6 24 20 25 21 18 2 -4 -11 -13 -39 -19 -63
l-11 -43 -41 6 c-22 4 -74 21 -116 39 l-76 32 96 -127 c108 -142 146 -205 132
-214 -6 -3 -32 27 -59 67 -85 125 -190 256 -288 356 -84 87 -93 94 -89 67 3
-16 16 -119 31 -228 l25 -197 -40 -47 c-23 -25 -42 -51 -42 -57 -1 -6 -5 18
-9 54 -3 38 -18 89 -34 124 -22 47 -27 68 -23 101 6 40 5 42 -28 54 -47 17
-86 70 -92 125 -3 26 2 75 12 116 11 45 15 88 11 115 l-6 44 30 -6 c19 -3 30
-1 30 6 0 6 -23 57 -52 114 l-51 102 -13 -58 c-10 -40 -11 -64 -4 -77 39 -74
-34 -328 -124 -427 -42 -47 -46 -60 -11 -37 37 24 41 12 16 -48 l-21 -52 37
-52 c21 -29 93 -125 160 -212 146 -191 299 -416 344 -503 65 -129 229 -602
283 -816 29 -113 76 -327 76 -343 0 -8 -45 -5 -57 5 -2 1 -16 62 -33 136 -17
74 -42 177 -56 229 -14 52 -37 136 -50 185 -14 50 -56 187 -95 305 -63 191
-79 229 -145 340 -143 239 -392 562 -487 631 l-38 28 -42 -19 c-23 -11 -59
-20 -80 -20 -23 0 -51 -9 -68 -20 -141 -101 -408 -230 -445 -216 -15 6 -16 8
0 24 21 24 22 56 1 48 -53 -20 -129 -35 -190 -38 l-70 -3 -3 33 c-2 20 -9 32
-18 32 -24 0 -13 40 16 62 14 10 61 34 105 53 l80 35 -67 0 c-120 0 -148 28
-79 78 l39 28 -34 37 c-19 20 -34 43 -34 50 0 27 28 50 76 62 42 10 50 16 54
41 6 36 57 71 118 80 l46 7 -34 16 c-38 18 -66 53 -76 93 -5 23 -1 33 24 54
34 30 32 54 -3 54 -14 0 -31 11 -43 28 -19 27 -200 343 -263 459 -19 35 -40
63 -46 63 -12 0 -5 -24 53 -170 10 -25 44 -83 76 -129 32 -46 58 -87 58 -91 0
-4 -29 -5 -65 -2 l-66 5 24 -64 c14 -35 32 -82 41 -103 22 -52 15 -55 -17 -7
-37 56 -87 91 -129 91 -33 0 -35 2 -51 54 -11 35 -32 69 -60 97 -88 92 -112
125 -149 210 -20 48 -40 99 -44 113 -5 21 -9 23 -28 16 -28 -10 -51 18 -30 38
7 6 15 8 19 3 3 -5 -1 -11 -7 -14 -7 -2 -10 -7 -7 -11 9 -9 59 4 59 15 0 5 -7
6 -15 3 -9 -4 -15 0 -15 8 0 21 48 21 53 0 3 -12 5 -10 6 7 1 22 -2 23 -39 18
-26 -3 -43 -1 -48 7 -4 7 -26 25 -50 42 -23 16 -45 40 -48 52 -6 20 -9 22 -20
10 -7 -7 -16 -27 -20 -44 -8 -40 28 -84 72 -87 17 -1 31 -6 31 -12 1 -5 13
-50 28 -100 15 -49 28 -97 29 -105 0 -8 5 -18 10 -22 6 -4 5 -13 -3 -22 -11
-13 -8 -14 21 -10 18 3 40 0 48 -5 12 -8 12 -12 -3 -29 -17 -19 -17 -20 15
-26 41 -8 78 -32 78 -51 0 -8 -12 -21 -26 -28 -26 -14 -26 -14 33 -26 33 -6
68 -18 79 -26 17 -13 18 -15 3 -30 -9 -9 -38 -20 -65 -24 -27 -5 -39 -9 -26
-10 35 -2 145 -41 162 -57 13 -14 13 -17 -4 -30 -11 -8 -31 -14 -45 -14 -25 0
-24 -1 9 -21 68 -41 74 -69 13 -69 l-36 0 21 -23 c32 -34 28 -47 -14 -47 l-36
0 41 -46 c55 -63 54 -79 -4 -71 l-44 6 24 -36 c46 -67 25 -93 -41 -53 l-33 21
16 -41 c12 -31 14 -43 5 -52 -9 -9 -20 -4 -45 20 l-33 32 -11 -31 c-8 -21 -17
-30 -27 -26 -12 5 -14 -2 -10 -41 9 -85 -31 -97 -66 -20 -10 24 -19 36 -19 27
-1 -27 -30 -45 -51 -31 -16 10 -19 7 -25 -24 -12 -66 -54 -55 -75 21 -7 25
-16 48 -20 50 -4 3 -15 -24 -24 -59 -14 -57 -14 -68 -1 -100 18 -42 20 -102 3
-112 -7 -4 -8 -3 -4 5 19 29 -4 61 -67 92 -34 17 -74 40 -89 50 -14 11 -29 19
-33 19 -4 0 -4 -57 -1 -127 5 -101 4 -123 -5 -103 -57 122 -62 137 -61 193 1
59 -4 65 -39 47 -14 -8 -19 -21 -19 -56 0 -47 -19 -94 -53 -131 -32 -35 -38
-27 -17 20 21 46 25 92 11 130 -9 22 -7 26 15 31 23 6 25 10 19 39 -13 57 -30
65 -40 18 -3 -16 -16 -38 -29 -50 -36 -34 -50 -8 -44 80 l5 71 -26 -48 c-17
-33 -33 -50 -48 -52 -21 -3 -23 1 -23 44 0 44 -1 46 -18 31 -9 -8 -29 -20 -43
-26 -51 -19 -64 30 -29 107 l19 43 -30 -21 c-20 -15 -38 -20 -53 -16 -13 3
-36 0 -51 -8 -41 -21 -61 -9 -56 33 2 7 -2 10 -7 7 -5 -3 -21 -10 -36 -16 -26
-9 -26 -10 -10 -35 9 -14 12 -25 5 -25 -5 0 -26 -16 -46 -35 -41 -41 -45 -28
-11 38 13 27 21 57 19 71 -3 13 3 36 12 50 15 23 15 26 2 26 -25 0 -29 17 -13
49 l16 29 -36 -10 c-46 -12 -68 -4 -61 22 5 19 2 20 -29 14 -33 -6 -47 7 -24
21 6 3 10 17 10 31 0 14 10 35 23 48 l23 23 -68 -5 c-77 -5 -88 6 -35 38 l32
20 -26 0 c-45 0 -47 66 -2 86 14 6 9 9 -21 13 -76 11 -46 44 74 82 l55 17 -46
1 c-25 1 -54 7 -64 15 -18 13 -17 14 9 32 28 18 28 18 6 26 -13 5 -20 14 -17
22 3 8 -1 17 -9 20 -16 6 -19 53 -4 76 8 12 17 7 53 -28 35 -34 48 -41 65 -35
19 7 16 12 -34 48 -31 22 -60 39 -66 37 -9 -2 -97 63 -189 142 -20 17 -44 38
-55 46 -10 8 -40 32 -66 54 -27 21 -48 36 -48 33 0 -19 55 -96 72 -100 16 -5
20 -11 15 -34 -4 -20 7 -51 39 -115 70 -139 182 -424 171 -435 -10 -10 -39 46
-82 157 -40 104 -138 326 -148 337 -2 1 -28 -20 -57 -47 -30 -28 -58 -50 -62
-50 -4 0 -8 -9 -8 -19 0 -11 -11 -32 -24 -48 -21 -24 -26 -26 -49 -16 -21 10
-25 17 -21 40 l5 28 -27 -33 c-20 -26 -29 -30 -35 -20 -6 9 -9 4 -9 -14 0 -23
-4 -28 -24 -28 -15 0 -26 -7 -29 -17 -3 -15 -6 -14 -15 7 -11 25 -11 25 -17 3
-4 -13 -12 -20 -21 -16 -8 3 -22 -1 -31 -8 -9 -8 -30 -14 -47 -14 -26 0 -31
-4 -31 -25 0 -28 -15 -30 -110 -16 -55 8 -53 4 24 -43 28 -17 38 -29 32 -38
-4 -8 -5 -27 -3 -43 4 -26 10 -30 57 -41 40 -9 68 -25 121 -70 38 -32 84 -66
103 -76 33 -18 33 -18 48 5 9 12 22 22 30 22 24 0 25 26 3 106 -22 78 -21 108
6 202 2 6 20 20 41 30 21 9 41 21 44 26 4 5 15 6 24 2 30 -11 8 -91 -48 -170
-11 -16 -16 -27 -11 -24 120 56 143 59 158 17 12 -36 -30 -121 -89 -179 -25
-24 -45 -50 -45 -57 0 -20 35 -33 93 -33 91 0 101 -44 27 -124 -47 -50 -49
-63 -15 -72 14 -4 24 -11 22 -18 -10 -31 -39 -9 -123 95 -49 62 -95 120 -102
128 -16 19 23 -51 51 -93 22 -31 21 -31 -35 -61 -15 -8 -33 -15 -41 -15 -24 0
-48 25 -51 55 l-3 30 -96 12 c-81 10 -109 19 -193 61 -105 53 -333 146 -340
139 -3 -2 30 -19 72 -37 78 -35 281 -144 299 -162 6 -5 -51 22 -125 61 -122
63 -359 166 -366 158 -2 -2 73 -248 91 -296 4 -10 12 -7 32 13 31 31 71 34
106 6 25 -20 30 -32 42 -117 l7 -41 39 39 c68 68 109 48 109 -53 0 -59 -3 -58
110 -57 57 0 87 -28 92 -86 2 -28 9 -43 23 -50 29 -15 93 -146 101 -205 6 -47
8 -50 35 -50 16 0 38 6 49 12 25 16 39 3 51 -48 34 -144 29 -240 -20 -395 -22
-70 -30 -120 -34 -197 l-4 -103 33 -42 c19 -23 79 -84 134 -136 81 -75 98 -96
89 -107 -9 -11 -21 -5 -68 34 -74 64 -140 108 -205 138 l-53 24 -47 -26 c-26
-14 -49 -24 -52 -21 -3 3 -31 -10 -61 -29 -31 -19 -62 -34 -69 -34 -7 0 -46
-29 -86 -64 -40 -35 -86 -74 -101 -87 l-28 -24 32 -60 c40 -74 37 -71 51 -57
35 35 81 -9 98 -94 11 -54 12 -55 33 -41 12 8 35 36 50 64 24 41 39 53 88 75
32 15 59 23 59 20 0 -4 -12 -29 -25 -57 -13 -27 -23 -50 -22 -51 1 -1 43 7 92
17 102 21 183 24 218 8 29 -13 67 -77 67 -112 0 -15 -9 -32 -22 -41 -29 -21
-131 -21 -188 -1 -55 19 -53 20 -35 -15 26 -50 17 -96 -21 -110 -17 -7 -43 -4
-86 9 -35 11 -78 22 -96 26 l-33 7 15 -37 c19 -44 20 -69 5 -96 -8 -16 -14
-18 -24 -9 -11 9 -14 6 -17 -12 -2 -19 -10 -24 -50 -28 -53 -6 -33 19 -207
-249 -62 -96 -104 -168 -93 -160 11 8 57 44 103 80 164 130 400 289 517 348
40 20 43 21 33 3 -5 -10 -48 -42 -95 -71 -126 -77 -315 -211 -443 -314 -62
-50 -113 -91 -113 -92 0 -1 47 4 104 11 57 7 147 16 199 20 l95 7 -16 27 c-35
60 35 79 133 36 l55 -25 -25 49 c-14 27 -25 60 -25 74 0 29 34 56 70 56 38 -1
111 -37 151 -77 l37 -35 22 22 c17 17 21 32 19 68 -4 76 0 91 25 107 21 14 28
14 58 2 18 -8 44 -26 57 -41 23 -24 26 -25 43 -9 13 12 18 31 18 75 0 75 12
98 51 98 21 0 32 -6 37 -21 7 -19 9 -19 21 -5 10 11 31 16 74 16 33 0 58 -3
54 -6 -7 -7 27 -79 41 -88 13 -8 100 18 205 59 89 35 93 39 135 100 43 64 158
195 170 195 4 0 19 -18 34 -39 l27 -38 -21 -19 c-11 -11 -47 -54 -79 -96 l-59
-76 30 -25 29 -25 58 18 c142 45 138 43 135 88 l-2 40 55 21 c31 12 60 21 64
21 5 0 14 7 21 14 10 13 2 14 -58 9 -93 -8 -104 -3 -89 36 14 37 47 50 131 52
55 2 52 3 -33 11 -103 9 -144 23 -149 51 -5 25 54 47 125 47 l58 1 -36 19
c-43 23 -63 45 -54 61 10 16 93 4 178 -26 37 -12 67 -22 67 -20 0 1 -30 23
-67 48 -83 55 -118 91 -110 111 14 36 98 11 184 -54 29 -22 63 -40 77 -40 14
0 41 -8 61 -17 28 -14 35 -22 31 -38 -3 -11 -6 -26 -6 -32 0 -7 -12 -13 -27
-13 -26 -1 -25 -2 15 -23 24 -13 39 -27 35 -31 -4 -5 2 -5 15 -2 19 6 22 4 22
-18 0 -23 4 -26 33 -26 l32 -1 -28 -15 c-30 -16 -27 -39 3 -29 14 5 17 2 13
-14 -3 -13 2 -23 16 -30 14 -8 21 -22 21 -40 0 -37 24 -59 45 -41 25 21 37 -1
45 -85 9 -87 15 -101 24 -51 11 60 35 106 50 100 8 -3 17 -13 19 -22 4 -15 5
-15 6 0 2 25 48 6 83 -35 28 -33 36 -53 17 -41 -14 8 -15 11 44 -106 54 -108
70 -170 43 -170 -23 0 -71 52 -108 118 -34 59 -43 63 -28 11 18 -59 29 -157
21 -186 -6 -21 -14 -28 -32 -28 -20 0 -27 8 -40 50 -10 32 -18 45 -23 36 -4
-7 -14 -10 -21 -7 -9 3 -17 -10 -24 -37 -12 -47 -46 -107 -60 -107 -15 0 -22
51 -16 119 l6 66 -28 -60 c-37 -80 -41 -85 -64 -85 -14 0 -21 9 -25 29 l-6 30
-39 -45 c-22 -25 -39 -49 -39 -54 0 -5 26 -16 57 -25 57 -17 57 -17 75 7 20
26 24 12 6 -27 -6 -14 -22 -28 -37 -31 -14 -3 -44 -14 -66 -25 l-40 -20 47 5
c26 3 50 2 52 -3 3 -5 -10 -42 -28 -82 -33 -70 -34 -107 -4 -81 30 24 105 -17
92 -51 -3 -9 -28 -30 -55 -48 -27 -17 -49 -32 -49 -33 0 -1 19 0 42 2 32 4 40
1 35 -9 -3 -8 -8 -21 -12 -30 -5 -13 4 -19 42 -28 26 -7 65 -16 85 -22 l36 -9
8 -113 8 -112 7 148 c4 82 10 154 12 161 4 10 33 8 139 -10 73 -13 140 -24
149 -24 9 0 30 23 47 50 l31 50 -75 0 c-79 0 -114 11 -114 35 0 13 34 39 52
40 24 1 107 64 116 87 6 16 7 28 3 28 -7 0 -2 261 5 269 2 2 21 7 41 10 28 5
38 12 37 24 -1 9 2 17 6 17 4 0 28 16 53 35 42 32 49 34 69 23 31 -18 327
-238 333 -248 3 -5 23 -1 45 7 30 12 40 22 40 38 0 12 15 35 35 52 19 17 35
36 35 42 0 6 -36 35 -79 66 -56 39 -81 63 -85 83 -4 15 -16 51 -28 80 -14 36
-17 57 -11 63 10 10 114 -26 246 -85 61 -27 60 -27 25 -78 -10 -14 -18 -28
-18 -31 0 -2 24 4 53 14 97 33 217 20 259 -28 17 -19 17 -21 -7 -52 -41 -56
-59 -65 -97 -45 l-33 17 23 -26 c22 -23 22 -26 7 -35 -15 -8 -12 -10 18 -16
19 -4 37 -12 40 -20 4 -10 31 -12 114 -9 l108 3 0 -68 c0 -65 -1 -68 -22 -64
-13 2 -23 0 -23 -6 0 -11 37 -27 55 -24 6 1 18 -12 27 -28 l17 -29 -30 6 c-34
6 -40 -11 -9 -27 11 -6 20 -16 20 -23 0 -23 70 -100 122 -133 29 -19 55 -34
59 -34 4 0 5 -9 2 -20 -4 -14 0 -20 10 -20 9 0 18 4 21 9 3 5 26 6 51 3 25 -2
50 0 57 6 10 7 18 3 31 -14 l19 -25 -29 7 c-24 6 -26 5 -16 -8 8 -9 31 -15 60
-16 26 0 49 -5 51 -11 2 -6 8 -11 14 -11 6 0 5 6 -2 15 -11 13 -8 20 15 40 23
22 26 31 20 65 -8 47 5 78 17 40 4 -15 5 -2 2 30 -3 30 -6 87 -7 125 -2 57 -8
83 -35 137 -37 76 -112 149 -179 174 -29 11 -45 25 -54 46 -7 17 -36 69 -66
115 -29 47 -53 87 -53 90 0 6 53 77 64 84 5 4 -1 10 -13 14 -31 9 -54 49 -45
77 8 26 44 78 55 78 3 0 9 -14 13 -32 6 -29 7 -30 24 -16 65 58 138 57 178 -1
29 -43 30 -55 5 -48 -14 3 -3 -17 37 -73 54 -73 62 -80 145 -118 48 -22 87
-38 87 -36 0 2 -23 49 -50 104 l-50 100 32 20 c63 38 98 19 98 -54 0 -36 0
-36 -20 -16 -11 11 -26 20 -34 20 -8 0 -23 3 -33 6 -10 4 4 -16 32 -45 41 -42
49 -57 47 -82 -3 -28 -2 -29 16 -18 16 10 23 10 35 0 13 -10 15 -9 10 7 -3 14
5 26 26 41 l31 22 44 -31 45 -30 -10 30 c-6 16 -17 30 -25 30 -8 0 -14 5 -14
10 0 15 37 12 69 -4 46 -24 65 -98 42 -159 l-10 -25 52 20 c29 10 61 23 72 28
17 8 66 26 263 96 23 9 42 18 42 20 0 7 -182 139 -285 207 -55 35 -156 97
-225 137 -69 40 -114 69 -100 65 45 -13 234 -114 339 -180 55 -35 101 -62 101
-60 0 7 -137 97 -244 160 -107 64 -118 78 -131 170 -4 28 -12 56 -18 63 -9 11
1 12 51 6 55 -6 65 -4 109 21 26 16 68 43 92 62 24 18 46 31 48 29 2 -2 -1
-34 -8 -70 -6 -37 -8 -70 -5 -73 4 -4 25 -10 49 -14 l42 -7 -47 1 c-55 1 -62
-4 -53 -32 13 -41 41 -45 101 -16 30 15 54 30 54 35 0 4 9 10 20 13 19 5 20 0
20 -61 l0 -67 71 -28 c67 -26 73 -26 96 -12 14 9 21 21 17 28 -14 24 -79 113
-121 165 -24 30 -43 58 -43 63 0 5 16 23 35 40 26 24 95 143 95 164 0 2 -32 6
-70 10 -73 7 -100 22 -100 55 0 11 -12 31 -26 47 -17 18 -24 35 -21 50 4 20 0
23 -27 23 -46 0 -165 27 -182 41 -10 8 -12 22 -8 45 5 26 2 35 -10 40 -20 8
-21 47 -1 64 8 6 34 18 57 25 l43 12 -40 21 c-22 11 -50 31 -62 44 -26 27 -42
88 -24 88 19 0 12 18 -9 25 -28 9 -25 41 7 62 21 14 48 18 124 18 l96 0 -63
71 c-35 39 -64 81 -64 92 0 11 13 30 30 42 18 13 27 26 23 35 -8 23 16 45 51
45 18 0 69 -18 115 -40 45 -22 84 -40 85 -40 2 0 1 11 -1 24 -3 13 -22 41 -44
62 -26 25 -39 47 -39 64 0 29 32 64 67 74 32 10 94 -9 141 -44 l41 -30 -6 78
c-5 65 -3 80 11 91 14 12 22 10 55 -17 l39 -32 11 28 c5 15 19 38 30 52 l21
25 35 -37 c20 -21 41 -38 47 -38 6 0 27 -12 46 -26 35 -28 67 -87 86 -162 l11
-44 28 42 c15 23 27 47 27 54 0 9 12 11 44 6 89 -13 155 -107 139 -195 -5 -26
-4 -28 9 -18 11 9 17 10 26 1 8 -8 20 -3 47 20 19 18 49 39 65 47 17 9 30 19
30 23 0 4 -21 31 -46 60 -43 49 -49 72 -20 72 7 0 22 -11 35 -24 15 -16 29
-22 47 -18 26 5 26 3 8 70 -4 15 -2 22 7 22 8 0 1 11 -16 25 -16 13 -25 24
-20 25 11 0 74 -40 177 -112 49 -34 61 -39 69 -27 5 7 9 17 9 20 0 8 -134 83
-212 119 -46 20 -72 39 -82 57 -31 61 -96 121 -152 142 -30 12 -65 21 -78 21
-15 0 -26 7 -29 20 -5 20 -29 26 -83 21 -14 -1 -23 6 -27 20 -4 16 -11 19 -26
14 -15 -5 -21 -2 -21 10 0 28 -47 37 -104 21 -28 -8 -60 -22 -71 -30 -17 -12
-25 -11 -67 10 -59 30 -103 32 -95 5 4 -17 -8 -19 -204 -25 -326 -11 -426 10
-305 65 35 16 37 19 16 19 -45 0 -100 20 -100 36 0 9 18 23 40 31 l40 16 -40
18 c-44 20 -52 44 -18 54 l21 7 -7 314 c-4 173 -4 314 -1 314 17 0 87 -43 118
-73 34 -32 35 -35 26 -73 -6 -21 -12 -52 -15 -69 -2 -16 -23 -112 -47 -212
l-44 -183 26 1 c14 0 46 4 71 7 l45 7 -32 13 c-40 18 -77 57 -70 76 3 8 22 18
41 21 39 8 42 14 52 85 6 47 16 61 28 41 3 -5 -3 -34 -14 -65 -14 -42 -16 -58
-7 -60 7 -2 48 -10 92 -19 44 -8 89 -18 100 -22 11 -4 -1 7 -27 24 -62 42
-109 97 -101 117 4 12 17 15 57 12 53 -3 74 9 102 58 14 25 55 29 93 10 42
-22 58 -20 36 4 -10 11 -24 20 -31 20 -20 0 -35 36 -28 67 7 26 7 26 24 6 14
-17 24 -20 62 -16 35 4 48 10 51 25 3 11 15 22 27 25 20 5 21 10 14 42 -5 20
-8 86 -7 148 1 93 -1 112 -14 117 -14 6 -42 -18 -43 -36 0 -17 -17 -7 -28 17
-15 33 -28 32 -37 -2 l-7 -28 -20 28 c-25 34 -63 38 -55 5 2 -13 8 -32 13 -42
7 -19 7 -19 -22 1 -32 23 -129 73 -141 73 -4 0 21 -29 57 -65 l64 -64 -43 2
c-27 1 -45 -4 -51 -13 -9 -15 -81 -23 -90 -10 -3 4 -26 17 -52 28 -50 22 -63
42 -27 42 16 0 12 7 -23 33 -46 35 -57 64 -23 59 16 -3 12 5 -18 36 -49 50
-47 79 2 74 19 -2 45 -11 58 -20 14 -8 37 -16 52 -17 l28 -2 -48 71 c-27 39
-49 76 -49 83 0 19 40 16 76 -6 l31 -19 -5 25 c-3 14 1 29 8 33 7 4 10 15 7
24 -5 12 -21 16 -59 17 -29 1 -57 1 -61 0 -4 -1 -32 3 -62 7 -40 7 -53 6 -47
-2 5 -6 28 -47 51 -91 23 -44 36 -71 29 -61 -7 10 -45 67 -84 127 -39 59 -100
142 -135 185 -35 42 -74 88 -85 103 l-22 26 -46 -144z m-2716 -381 c0 -5 -5
-10 -11 -10 -5 0 -7 5 -4 10 3 6 8 10 11 10 2 0 4 -4 4 -10z m30 -20 c0 -5 -7
-10 -16 -10 -8 0 -12 5 -9 10 3 6 10 10 16 10 5 0 9 -4 9 -10z m26 -47 c-18
-17 -18 -17 -7 4 10 19 9 22 -4 17 -8 -4 -15 -2 -15 3 0 19 14 23 29 8 14 -13
13 -17 -3 -32z m2983 -75 c15 -25 14 -29 -8 -52 -13 -14 -28 -23 -32 -20 -5 3
-9 28 -9 55 0 42 3 50 17 47 10 -2 24 -15 32 -30z m-296 -148 c-7 -28 -13 -25
-13 6 0 14 4 23 9 20 5 -3 7 -15 4 -26z m459 -232 c-6 -6 -14 -9 -17 -6 -3 3
-3 13 1 22 5 12 10 14 17 7 8 -8 8 -14 -1 -23z m-812 -192 c0 -44 -9 -66 -25
-66 -23 0 -26 17 -9 59 20 50 34 53 34 7z m-4360 -182 c0 -2 -9 0 -20 6 -11 6
-20 13 -20 16 0 2 9 0 20 -6 11 -6 20 -13 20 -16z m600 -119 c10 -12 9 -16 -5
-21 -16 -6 -34 9 -35 29 0 13 27 8 40 -8z m-150 -55 c0 -5 -2 -10 -4 -10 -3 0
-8 5 -11 10 -3 6 -1 10 4 10 6 0 11 -4 11 -10z m4065 -62 c-8 -22 -21 -34 -37
-36 -21 -4 -21 -1 11 32 19 20 36 36 37 36 2 0 -3 -15 -11 -32z m1001 -41 c0
-1 11 -19 23 -39 26 -44 25 -44 -69 -23 -89 20 -127 19 -139 -2 -9 -15 -10
-16 -11 -2 0 21 40 58 76 69 23 7 116 4 120 -3z m-4262 -110 c-12 -23 -30 -69
-40 -104 -9 -34 -21 -60 -25 -57 -15 9 2 146 22 186 17 34 21 37 43 27 l24
-11 -24 -41z m116 -1 c0 -3 -5 -17 -11 -33 -6 -15 -19 -64 -29 -108 -17 -78
-18 -79 -29 -50 -13 32 -11 53 15 140 12 42 20 55 35 55 10 0 19 -2 19 -4z
m178 -1032 c48 -42 133 -110 190 -153 100 -74 102 -77 98 -110 -3 -19 -9 -38
-13 -42 -16 -16 -239 181 -291 256 -70 101 -85 125 -77 125 4 0 46 -34 93 -76z
m1873 40 c53 -15 163 -74 225 -120 17 -13 64 -29 108 -39 43 -8 91 -22 106
-30 38 -20 77 -68 85 -106 4 -17 15 -33 24 -36 9 -2 34 -13 56 -24 l40 -19
-47 4 c-27 2 -48 0 -48 -4 0 -5 21 -51 46 -103 31 -65 49 -117 56 -168 6 -41
18 -82 27 -92 14 -16 13 -18 -7 -24 -13 -3 -22 -13 -22 -25 0 -17 -5 -19 -27
-15 -41 8 -53 -2 -54 -42 0 -20 -10 -63 -22 -96 -24 -65 -52 -82 -86 -51 -16
15 -19 13 -40 -15 -20 -27 -27 -30 -55 -25 -17 4 -40 7 -51 7 -10 0 -24 4 -31
10 -9 7 -20 2 -37 -15 -14 -14 -37 -28 -52 -32 -42 -10 -57 13 -56 88 l0 65
-42 -39 c-23 -21 -56 -52 -72 -69 l-31 -30 -72 52 c-40 29 -72 56 -72 59 0 4
14 13 30 20 23 10 37 10 55 2 24 -11 25 -10 25 21 0 17 11 55 24 84 l24 51
-41 -29 c-73 -51 -147 -49 -147 4 0 11 11 40 25 64 l26 43 -26 -10 c-54 -21
-137 -4 -156 31 -14 27 3 53 62 93 l50 34 -65 4 c-68 4 -106 25 -106 58 0 24
21 39 72 54 l42 13 -39 7 c-22 4 -52 14 -68 22 -33 18 -53 60 -37 79 8 10 6
15 -9 20 -26 8 -26 18 -4 41 38 38 105 58 209 62 l101 4 -43 40 c-40 37 -44
45 -44 89 l0 49 68 0 c38 0 93 -7 123 -16z m-2711 -556 c-22 -18 -34 -20 -105
-15 -44 3 -91 10 -105 16 -19 8 -5 10 65 5 50 -3 104 -1 120 5 46 15 52 12 25
-11z m2530 -310 c0 -36 -3 -49 -10 -42 -10 10 -4 94 6 94 2 0 4 -23 4 -52z
m922 -355 c67 -92 77 -113 55 -113 -9 0 -46 44 -83 98 -37 53 -84 118 -105
143 -22 26 -39 53 -39 60 1 20 104 -93 172 -188z m-648 151 c29 -5 36 -11 36
-30 l0 -23 -50 31 c-49 30 -65 46 -36 35 8 -3 31 -9 50 -13z m-766 -155 c7
-12 11 -23 8 -26 -8 -9 -36 17 -36 33 0 20 13 17 28 -7z m1412 -139 c38 -21
32 -24 -46 -20 -31 1 -64 -5 -82 -14 -17 -9 -36 -16 -42 -16 -19 0 -10 29 16
49 34 27 106 27 154 1z m180 -222 c0 -18 -6 -13 -26 22 -14 25 -30 52 -36 60
-6 8 6 -2 26 -22 20 -21 36 -48 36 -60z m-1741 -15 c1 -18 -28 -16 -35 2 -4 8
0 22 7 31 12 14 14 14 20 -3 4 -10 8 -24 8 -30z m-349 -3 c15 -28 -2 -55 -50
-80 -22 -11 -42 -20 -45 -20 -3 0 13 27 37 60 23 33 43 60 45 60 1 0 7 -9 13
-20z m2043 -19 c8 -8 6 -16 -6 -28 -16 -16 -18 -16 -40 5 -13 12 -36 22 -53
23 -25 0 -27 2 -9 10 25 11 94 4 108 -10z m164 -49 c7 -4 -11 -8 -40 -8 -30 0
-66 -8 -86 -18 -18 -10 -30 -12 -26 -6 19 30 121 52 152 32z m-39 -116 c3 -11
-4 -26 -14 -33 -16 -12 -15 -13 13 -13 18 0 34 -3 36 -7 6 -9 -86 -8 -108 1
-23 8 -18 32 12 56 31 24 56 23 61 -4z m2 -101 c0 -8 -4 -15 -10 -15 -5 0 -10
7 -10 15 0 8 5 15 10 15 6 0 10 -7 10 -15z m42 -17 c-7 -7 -12 -8 -12 -2 0 14
12 26 19 19 2 -3 -1 -11 -7 -17z"/>
<path d="M5829 4305 c-26 -14 -43 -40 -35 -54 3 -4 1 -23 -3 -43 -5 -20 -5
-41 -1 -48 9 -14 13 -8 30 45 7 22 21 57 32 78 20 40 17 44 -23 22z"/>
<path d="M5599 3978 c-12 -23 -12 -23 10 -4 23 21 26 26 11 26 -5 0 -15 -10
-21 -22z"/>
<path d="M5720 3929 c0 -5 5 -7 10 -4 6 3 10 8 10 11 0 2 -4 4 -10 4 -5 0 -10
-5 -10 -11z"/>
<path d="M4383 7373 c-4 -11 6 -27 31 -50 30 -28 40 -32 52 -22 19 16 18 32
-7 63 -23 30 -66 35 -76 9z"/>
<path d="M4560 7371 c0 -6 5 -13 10 -16 6 -3 10 1 10 9 0 9 -4 16 -10 16 -5 0
-10 -4 -10 -9z"/>
<path d="M6151 7298 c17 -46 36 -96 41 -111 6 -15 13 -26 17 -25 3 2 20 10 36
18 17 8 32 15 34 16 6 5 -81 159 -97 172 -9 6 -26 12 -39 12 l-22 0 30 -82z"/>
<path d="M4532 7348 c3 -7 12 -14 21 -16 12 -2 15 1 11 12 -7 19 -38 22 -32 4z"/>
<path d="M4500 7316 c0 -8 10 -22 22 -30 30 -22 48 -3 23 24 -21 23 -45 26
-45 6z"/>
<path d="M4186 7283 c-4 -9 -1 -20 6 -24 20 -13 0 -24 -38 -20 -38 3 -48 -20
-16 -38 12 -8 13 -10 3 -11 -11 0 -9 -4 5 -15 18 -14 17 -14 -13 -15 -17 0
-35 -4 -38 -10 -3 -5 -1 -10 4 -10 13 0 10 -22 -4 -32 -5 -4 0 -15 13 -26 19
-17 20 -21 7 -32 -18 -15 -20 -30 -3 -30 6 0 20 -7 30 -16 15 -14 20 -15 35
-3 15 12 16 12 11 -3 -8 -20 15 -31 31 -15 8 8 11 7 11 -5 0 -23 23 -28 37 -9
9 12 12 12 13 3 0 -22 61 -103 71 -96 7 4 8 30 5 66 -5 50 -4 59 8 55 16 -6
30 19 19 35 -4 7 2 9 15 6 12 -4 20 -2 17 2 -3 5 1 11 7 13 10 4 10 6 1 6 -7
1 -13 5 -13 11 0 5 7 7 15 4 11 -5 15 1 15 19 0 14 5 29 10 32 17 10 11 25
-10 25 -16 0 -19 6 -16 29 2 22 -2 31 -15 34 -13 3 -17 11 -13 21 8 20 -5 20
-34 0 -28 -19 -40 -11 -21 13 11 13 11 15 1 9 -10 -6 -13 -2 -10 14 5 35 -19
35 -51 1 -30 -32 -39 -30 -54 12 -8 22 -33 22 -41 0z"/>
<path d="M3809 7283 c-1 -5 -2 -15 -3 -23 -2 -20 -36 -26 -36 -6 0 9 5 16 12
16 6 0 9 2 6 5 -3 3 -11 3 -19 0 -9 -3 -14 -21 -14 -54 0 -37 6 -55 28 -80 15
-18 27 -37 27 -43 0 -6 3 -8 6 -5 4 4 -1 19 -10 34 l-17 28 21 -24 c12 -14 19
-33 17 -43 -3 -10 -2 -16 3 -13 7 4 21 -44 26 -89 3 -39 48 -55 100 -36 l26
10 -33 23 c-19 12 -41 37 -49 54 -11 25 -20 31 -34 27 -15 -5 -18 -2 -13 10 4
9 1 16 -5 16 -6 0 -8 3 -5 6 4 4 14 1 23 -7 15 -12 16 -11 9 11 -4 14 -17 44
-30 67 -15 27 -22 57 -21 82 0 23 -2 41 -6 41 -5 0 -9 -3 -9 -7z m1 -68 c0 -8
-9 -15 -20 -15 -11 0 -20 -4 -20 -9 0 -14 18 -23 22 -12 6 18 30 16 33 -2 3
-13 -1 -17 -12 -12 -9 3 -20 0 -24 -7 -5 -8 -11 -4 -20 15 -9 21 -9 30 1 42
16 19 40 19 40 0z m40 -69 c0 -11 -19 -15 -25 -6 -3 5 1 10 9 10 9 0 16 -2 16
-4z m10 -26 c0 -5 -7 -10 -16 -10 -8 0 -12 5 -9 10 3 6 10 10 16 10 5 0 9 -4
9 -10z m19 -114 c-9 -8 -10 -7 -6 6 3 9 1 18 -5 20 -7 3 -8 10 -3 18 6 10 10
8 17 -10 6 -15 5 -27 -3 -34z m31 -10 c0 -3 -4 -8 -10 -11 -5 -3 -10 -1 -10 4
0 6 5 11 10 11 6 0 10 -2 10 -4z"/>
<path d="M3854 7276 c-6 -17 12 -56 26 -56 6 0 10 16 10 35 0 25 -4 35 -15 35
-9 0 -18 -6 -21 -14z"/>
<path d="M3907 7283 c-10 -10 -8 -66 3 -83 20 -32 72 35 57 74 -6 16 -47 22
-60 9z"/>
<path d="M6930 7286 c0 -2 8 -10 18 -17 15 -13 16 -12 3 4 -13 16 -21 21 -21
13z"/>
<path d="M3986 7248 c-28 -39 -16 -98 20 -98 15 0 37 61 32 92 -4 31 -33 34
-52 6z"/>
<path d="M2300 7094 c0 -79 3 -93 21 -110 17 -15 20 -27 15 -59 -3 -22 -2 -33
1 -25 20 54 48 103 65 109 17 6 14 14 -33 81 -28 41 -55 79 -60 85 -5 5 -9
-27 -9 -81z"/>
<path d="M3870 7150 c0 -5 5 -10 10 -10 6 0 10 5 10 10 0 6 -4 10 -10 10 -5 0
-10 -4 -10 -10z"/>
<path d="M3900 7140 c0 -11 5 -20 10 -20 6 0 10 9 10 20 0 11 -4 20 -10 20 -5
0 -10 -9 -10 -20z"/>
<path d="M3934 7135 c-8 -21 3 -48 19 -43 19 7 22 58 2 58 -8 0 -18 -7 -21
-15z"/>
<path d="M4574 7093 c0 -21 -7 -53 -16 -71 -9 -18 -15 -39 -12 -46 3 -8 -9
-20 -30 -30 -39 -18 -41 -23 -25 -46 8 -13 9 -12 7 4 -2 10 3 21 10 23 6 3 12
-2 12 -10 0 -25 54 -5 58 21 2 12 -1 22 -7 22 -5 0 -9 9 -8 20 1 11 7 20 15
20 7 0 11 -3 8 -8 -2 -4 -1 -23 4 -42 6 -29 8 -30 9 -10 2 33 18 58 29 45 5
-6 62 -84 127 -175 65 -91 137 -191 161 -222 33 -43 57 -96 99 -213 30 -85 55
-160 55 -165 0 -6 -26 -10 -57 -11 -57 -1 -57 -1 -18 -9 37 -8 91 -25 140 -46
17 -7 15 -2 -8 25 -45 53 -69 111 -71 164 -1 48 3 54 42 74 2 0 -18 42 -45 92
-43 82 -52 92 -85 101 -27 8 -43 20 -54 42 -19 36 -236 314 -266 341 -18 15
-19 21 -8 46 13 33 4 84 -11 60 -7 -11 -9 -9 -9 7 0 19 -17 34 -39 34 -3 0 -7
-17 -7 -37z m36 -43 c0 -5 -7 -10 -15 -10 -8 0 -15 5 -15 10 0 6 7 10 15 10 8
0 15 -4 15 -10z m-10 -30 c0 -5 -7 -10 -15 -10 -8 0 -15 5 -15 10 0 6 7 10 15
10 8 0 15 -4 15 -10z m-30 -81 c0 -5 -4 -8 -9 -5 -5 4 -11 1 -13 -6 -3 -7 -9
-8 -18 -3 -11 7 -10 10 6 16 27 11 34 10 34 -2z"/>
<path d="M6320 7078 c1 -42 1 -42 14 -18 10 17 11 30 5 42 -15 28 -19 22 -19
-24z"/>
<path d="M5646 7100 c-14 -46 -11 -69 14 -103 l26 -35 11 28 c9 24 6 35 -18
76 -18 31 -30 43 -33 34z"/>
<path d="M7779 7004 c-16 -40 -16 -41 2 -37 24 7 25 -23 3 -75 -14 -32 -20
-109 -9 -120 2 -2 13 1 24 8 25 13 26 47 8 180 l-12 85 -16 -41z"/>
<path d="M2434 6911 l-10 -58 28 29 c26 28 27 31 13 59 -9 16 -17 29 -18 29
-2 0 -8 -26 -13 -59z"/>
<path d="M5020 6894 c27 -47 194 -317 221 -357 4 -5 19 4 34 19 18 18 25 32
19 39 -32 42 -108 163 -144 231 -38 69 -49 83 -84 97 -85 34 -82 36 -46 -29z"/>
<path d="M4430 6901 c-24 -7 -24 -8 -5 -18 24 -12 45 -7 45 13 0 15 -3 16 -40
5z"/>
<path d="M5615 6864 c-15 -23 -15 -32 -5 -70 7 -24 17 -44 22 -44 5 0 4 9 -2
19 -15 29 -12 52 10 76 18 19 19 24 7 34 -12 9 -18 6 -32 -15z"/>
<path d="M2496 6844 c-3 -11 -21 -43 -40 -72 -38 -57 -27 -55 41 5 42 38 42
38 24 62 -18 23 -19 23 -25 5z"/>
<path d="M4261 6834 c0 -11 3 -14 6 -6 3 7 2 16 -1 19 -3 4 -6 -2 -5 -13z"/>
<path d="M4230 6825 c0 -8 4 -15 8 -15 5 0 9 7 9 15 0 8 -4 15 -9 15 -4 0 -8
-7 -8 -15z"/>
<path d="M5290 6834 c0 -3 30 -64 66 -135 59 -116 67 -128 79 -112 8 11 10 20
3 24 -6 4 -6 21 2 48 10 37 8 46 -10 80 -14 25 -34 42 -56 50 -19 7 -40 21
-47 32 -11 17 -37 27 -37 13z"/>
<path d="M5440 6763 c0 -5 5 -15 10 -23 8 -12 10 -11 10 8 0 12 -4 22 -10 22
-5 0 -10 -3 -10 -7z"/>
<path d="M8060 6750 c0 -7 51 -27 150 -56 8 -2 -16 12 -55 31 -71 36 -95 42
-95 25z"/>
<path d="M7802 6743 l-24 -5 7 -146 c7 -142 8 -148 34 -175 l27 -27 2 43 c1
24 8 102 16 172 9 70 13 132 10 136 -5 9 -31 10 -72 2z"/>
<path d="M5537 6718 c-11 -38 -8 -77 7 -106 8 -15 20 -55 26 -89 11 -56 14
-61 31 -53 10 6 25 10 34 10 16 0 45 22 45 35 0 9 -110 196 -125 213 -10 11
-13 9 -18 -10z"/>
<path d="M3980 6710 c6 -11 20 -26 30 -33 11 -6 20 -18 20 -25 0 -7 11 -18 25
-24 14 -6 25 -17 25 -25 0 -8 12 -13 30 -13 17 0 30 2 30 5 0 18 -40 61 -88
96 -62 44 -89 51 -72 19z"/>
<path d="M3910 6681 c0 -5 5 -13 10 -16 6 -3 10 -2 10 4 0 5 -4 13 -10 16 -5
3 -10 2 -10 -4z"/>
<path d="M8230 6679 c0 -4 -18 -9 -39 -13 -22 -3 -42 -10 -45 -14 -13 -21 16
-34 88 -39 82 -6 86 -13 21 -33 -77 -23 -96 -33 -110 -61 -23 -44 -18 -53 16
-25 29 25 135 63 145 53 3 -3 1 -21 -4 -40 -6 -23 -6 -39 0 -45 6 -6 6 -12 -1
-16 -21 -13 -11 -52 18 -74 l29 -21 15 22 c22 33 30 15 13 -28 -9 -20 -14 -41
-11 -45 2 -4 28 1 57 11 49 16 53 20 56 52 3 30 6 34 28 29 19 -3 23 -9 18
-24 -6 -19 -4 -19 24 -4 26 14 31 14 42 1 7 -8 26 -15 42 -15 25 0 29 3 23 18
-13 30 -18 62 -9 62 4 0 18 -10 31 -22 17 -16 26 -19 34 -11 9 9 3 17 -22 32
-49 29 -59 39 -59 62 0 33 -29 79 -50 79 -10 0 -22 5 -25 10 -4 6 -10 8 -15 5
-5 -3 -20 6 -34 20 -15 14 -31 23 -36 20 -5 -3 -20 4 -32 15 -43 40 -76 51
-144 48 -35 -1 -64 -5 -64 -9z"/>
<path d="M6250 6584 c0 -6 -10 -20 -21 -33 -19 -20 -20 -25 -8 -48 14 -26 14
-25 26 28 6 29 10 55 7 58 -2 2 -4 0 -4 -5z"/>
<path d="M9379 6474 c-176 -85 -299 -157 -299 -176 0 -13 -8 -18 -30 -18 -33
0 -37 -12 -15 -50 15 -27 20 -70 7 -70 -4 0 -17 7 -29 15 -21 15 -22 15 -16
-20 7 -42 -2 -44 -39 -8 l-28 27 6 -32 c8 -40 -12 -43 -46 -7 -13 14 -28 25
-33 25 -6 0 -35 -18 -64 -41 l-54 -41 45 -29 c51 -31 59 -60 24 -76 -21 -9
-20 -10 17 -29 21 -10 42 -26 46 -34 4 -8 15 -32 25 -53 l19 -38 5 95 c3 52
10 100 16 106 25 25 49 4 89 -73 l39 -78 14 27 c8 14 22 69 33 121 10 52 22
99 25 104 10 17 32 9 59 -22 14 -17 27 -30 29 -28 18 22 262 449 257 449 -4 0
-50 -21 -102 -46z"/>
<path d="M5797 6389 c12 -19 44 -80 72 -136 l52 -103 87 0 c48 0 114 -7 147
-16 33 -8 70 -18 82 -21 l23 -5 -25 67 c-14 36 -36 88 -50 113 l-24 47 -1 -45
0 -45 -30 47 c-36 58 -67 75 -151 83 -63 7 -145 25 -183 41 -19 7 -19 6 1 -27z"/>
<path d="M9125 6400 c-16 -4 -48 -8 -69 -9 l-39 -1 23 -25 23 -25 46 26 c75
43 78 50 16 34z"/>
<path d="M8706 6323 c16 -38 16 -89 -1 -103 -15 -12 -16 -11 -9 15 6 24 4 27
-10 22 -10 -4 -26 -7 -37 -7 -13 0 -17 -5 -12 -17 5 -14 1 -15 -29 -10 -21 3
-40 1 -47 -6 -19 -19 -13 -23 27 -19 27 3 42 -1 52 -13 12 -15 11 -22 -8 -56
l-23 -39 46 0 c39 0 55 7 114 52 l69 51 -55 74 c-31 40 -62 73 -70 73 -11 0
-13 -5 -7 -17z"/>
<path d="M3030 6281 l-25 -7 26 -6 c15 -2 40 1 55 8 l29 12 -30 0 c-16 0 -41
-3 -55 -7z"/>
<path d="M3168 6119 c-21 -11 -38 -24 -38 -30 0 -16 53 -58 74 -59 20 0 20 0
0 15 -19 14 -19 15 3 55 24 45 17 49 -39 19z"/>
<path d="M4190 6058 c0 -2 21 -21 48 -43 26 -21 38 -28 27 -16 -19 23 -75 66
-75 59z"/>
<path d="M3388 5973 l-16 -28 34 -2 c31 -1 34 1 34 28 0 38 -30 39 -52 2z"/>
<path d="M5430 5870 c-12 -7 -12 -10 3 -16 21 -8 29 -3 19 13 -5 8 -13 9 -22
3z"/>
<path d="M8715 5780 c-3 -5 3 -10 14 -10 12 0 21 5 21 10 0 6 -6 10 -14 10 -8
0 -18 -4 -21 -10z"/>
<path d="M5203 5723 c-13 -36 -25 -44 -38 -26 -11 15 -13 15 -20 -6 -6 -21 8
-51 26 -51 6 0 84 44 118 67 2 1 -2 9 -9 18 -17 21 -69 20 -77 -2z"/>
<path d="M3831 5698 c-1 -16 4 -28 9 -28 12 0 12 8 0 35 -8 18 -9 17 -9 -7z"/>
<path d="M2094 5565 c-10 -8 -14 -15 -8 -15 6 0 17 7 24 15 16 19 9 19 -16 0z"/>
<path d="M7758 5483 c-23 -26 -31 -60 -19 -80 8 -15 10 -14 16 12 3 17 10 42
14 58 11 32 9 33 -11 10z"/>
<path d="M9040 5324 c-98 -43 -137 -143 -75 -194 17 -14 15 -16 -21 -27 l-39
-11 40 -2 40 -3 -36 -10 c-33 -9 -35 -12 -35 -50 1 -54 -15 -56 -43 -6 l-23
41 -57 -7 c-31 -3 -111 -17 -178 -30 -107 -21 -126 -27 -147 -52 -13 -15 -23
-29 -22 -31 2 -1 29 10 61 24 85 39 184 44 245 12 89 -46 77 -99 -39 -169
l-65 -39 67 0 c65 0 67 1 92 37 14 21 25 42 25 48 0 15 60 70 155 145 44 34
85 68 90 75 6 7 22 15 35 17 21 2 24 -1 22 -19 -5 -34 14 -28 27 8 8 24 15 30
33 27 15 -2 24 -11 26 -25 4 -26 20 -30 28 -8 3 8 -2 22 -11 31 -15 16 -15 18
-1 26 23 13 72 6 69 -9 -4 -18 1 -16 43 12 20 14 32 25 27 25 -6 0 -13 14 -16
30 -4 18 -13 30 -22 30 -8 0 -15 7 -15 15 0 14 -47 51 -114 87 -38 22 -118 23
-166 2z m110 -54 c18 -12 2 -12 -25 0 -13 6 -15 9 -5 9 8 0 22 -4 30 -9z m88
-2 c-9 -7 -23 -26 -32 -43 -8 -16 -15 -25 -16 -20 0 17 39 75 52 75 7 0 6 -5
-4 -12z m-78 -53 c0 -10 -10 -15 -27 -15 -27 1 -27 1 -9 15 25 19 36 19 36 0z
m126 -10 c5 -13 9 -13 23 -3 9 7 5 0 -8 -15 -30 -33 -51 -35 -51 -4 0 37 25
52 36 22z m39 -35 c3 -5 1 -10 -4 -10 -6 0 -11 5 -11 10 0 6 2 10 4 10 3 0 8
-4 11 -10z m-275 -80 c-8 -5 -26 -10 -40 -10 -20 0 -22 2 -10 10 8 5 26 10 40
10 20 0 22 -2 10 -10z"/>
<path d="M1849 5118 c4 -12 14 -24 20 -26 8 -3 7 5 -4 22 -21 32 -27 33 -16 4z"/>
<path d="M8225 5129 c-4 -6 -5 -12 -2 -15 2 -3 7 2 10 11 7 17 1 20 -8 4z"/>
<path d="M8473 5092 c-10 -16 -9 -21 2 -26 8 -3 15 -15 15 -27 0 -18 4 -20 26
-15 15 4 90 18 166 31 77 13 143 26 146 30 4 4 -29 4 -73 1 -71 -6 -121 -2
-240 20 -23 4 -33 1 -42 -14z"/>
<path d="M1671 5054 c9 -10 26 -34 36 -52 16 -26 22 -30 31 -19 9 10 1 22 -36
52 -26 21 -40 30 -31 19z"/>
<path d="M7771 4896 c-16 -19 -11 -29 8 -17 7 5 12 14 9 21 -3 9 -8 7 -17 -4z"/>
<path d="M7736 4835 c-23 -61 15 -169 85 -240 27 -28 49 -58 49 -66 0 -9 -11
-26 -25 -39 -14 -13 -25 -27 -25 -32 0 -21 32 -18 63 6 19 14 42 26 51 26 27
0 74 -28 87 -51 9 -17 13 -19 20 -8 13 21 12 24 -23 37 -81 30 -176 144 -219
262 -31 88 -54 127 -63 105z"/>
<path d="M2016 4664 c-26 -7 -50 -15 -53 -18 -3 -2 22 -10 54 -16 32 -6 69
-14 82 -17 l24 -6 -28 37 c-15 20 -28 35 -29 35 0 -1 -23 -7 -50 -15z"/>
<path d="M7633 4070 c-29 -17 -53 -32 -53 -35 0 -2 27 -52 60 -112 33 -59 63
-117 66 -128 4 -15 41 -36 136 -78 l132 -57 28 27 c34 33 36 30 -80 95 -40 22
-71 42 -69 44 11 11 305 -105 445 -175 206 -103 338 -201 434 -320 67 -84 89
-101 62 -50 -71 140 -212 281 -401 402 -115 74 -132 81 -151 64 -36 -31 -61
-30 -92 3 -15 17 -32 44 -35 61 -4 19 -19 38 -38 50 -43 25 -49 24 -70 -12
-16 -29 -19 -30 -35 -16 -9 8 -27 18 -39 21 -13 4 -26 18 -29 32 -5 20 -12 24
-39 22 -38 -2 -65 16 -65 43 0 11 -7 19 -15 19 -19 0 -69 63 -75 97 -3 14 -9
28 -15 30 -5 1 -34 -11 -62 -27z"/>
<path d="M8594 3995 c16 -38 24 -49 31 -39 5 7 18 14 28 16 14 2 7 12 -31 39
l-49 37 21 -53z"/>
<path d="M7566 3845 c-3 -9 0 -15 9 -15 9 0 12 6 9 15 -4 8 -7 15 -9 15 -2 0
-5 -7 -9 -15z"/>
<path d="M8620 3852 c0 -5 17 -14 38 -21 20 -7 44 -15 52 -17 8 -3 2 6 -13 20
-27 25 -77 36 -77 18z"/>
<path d="M3780 3643 c-41 -3 -210 -78 -210 -93 0 -3 22 -19 49 -35 27 -17 47
-33 45 -37 -3 -4 -59 -39 -127 -79 -144 -85 -305 -192 -365 -242 -41 -34 -42
-36 -22 -47 17 -9 34 -3 108 38 172 97 224 124 293 152 38 16 69 25 69 21 0
-4 -48 -48 -107 -98 -60 -50 -130 -114 -158 -142 l-50 -51 30 -24 30 -24 35
26 c19 14 64 51 98 81 148 130 138 124 177 111 34 -11 36 -10 135 65 55 42
100 79 100 83 0 4 4 13 9 20 7 12 14 11 40 -2 34 -18 33 -18 45 37 6 26 4 27
-30 27 -35 0 -36 1 -32 34 4 32 2 33 -20 25 -66 -25 -83 8 -31 61 l31 31 -40
-7 c-33 -5 -44 -2 -62 16 -21 21 -21 23 -4 41 9 10 15 18 13 17 -2 -1 -24 -3
-49 -5z"/>
<path d="M4054 3332 c-27 -23 -102 -162 -88 -162 11 0 72 35 127 72 49 33 57
43 57 70 l0 31 -25 -23 c-25 -24 -29 -21 -37 22 -3 14 -8 12 -34 -10z"/>
<path d="M3822 3212 c-26 -22 -30 -30 -20 -40 18 -18 26 -15 43 19 23 44 15
52 -23 21z"/>
</g>
</svg>
